<svg width="630" height="510" viewBox="0 0 630 510" fill="none" xmlns="http://www.w3.org/2000/svg">
<path opacity="0.07" d="M521.3 160L443.7 204.8C441.4 206.2 438.3 205.3 437 203L436.9 202.9C435.5 200.6 436.4 197.5 438.7 196.2L516.3 151.4C518.6 150 521.7 150.9 523 153.2L523.1 153.3C524.5 155.7 523.7 158.7 521.3 160Z" fill="black"/>
<path opacity="0.07" d="M220.3 450.8L126.2 396.5C123.8 395.1 123 392.1 124.4 389.7C125.8 387.3 128.8 386.5 131.2 387.9L225.3 442.2C227.7 443.6 228.5 446.6 227.1 449C225.7 451.4 222.7 452.2 220.3 450.8Z" fill="black"/>
<path opacity="0.07" fill-rule="evenodd" clip-rule="evenodd" d="M193.1 354.9L355.5 261.1C358.8 259.2 363.8 259 366.7 260.6L464.4 317C467.2 318.6 466.9 321.5 463.5 323.5L301.1 417.3C297.8 419.2 292.8 419.4 289.9 417.8L192.2 361.4C189.4 359.7 189.8 356.8 193.1 354.9Z" fill="black"/>
<path fill-rule="evenodd" clip-rule="evenodd" d="M191.6 171.6L348.9 77.8C352.2 75.9 354.9 77.4 354.9 81.2L360.1 212.3C360.1 216.1 357.4 220.8 354.1 222.7L191.7 316.5C188.4 318.4 185.7 316.9 185.7 313.1V182C185.6 178.2 188.3 173.5 191.6 171.6Z" fill="#EBF0FA"/>
<path fill-rule="evenodd" clip-rule="evenodd" d="M464.6 276.5L366.7 226.5C363.9 224.9 358.8 225.1 355.5 227L198.1 317.9H190.3V324.2C190.2 325.3 190.8 326.4 192.2 327.2L289.9 383.6C292.7 385.2 297.8 385 301.1 383.1L463.5 289.3C466.9 287.4 468.6 278.5 464.6 276.5Z" fill="#CCD5E3"/>
<path fill-rule="evenodd" clip-rule="evenodd" d="M187.1 172.4L349.5 78.6001C352.8 76.7001 355.5 78.2001 355.5 82.0001L360.7 213.1C360.7 216.9 358 221.6 354.7 223.5L192.3 317.3C189 319.2 186.3 317.7 186.3 313.9L181.1 182.8C181.1 179 183.8 174.3 187.1 172.4Z" fill="#4C4980"/>
<path fill-rule="evenodd" clip-rule="evenodd" d="M191.8 307.1V180.2C191.8 179.4 192.3 178.5 193 178.1L348.9 85.1C349.6 84.7 350.1 85 350.1 85.8L355.3 212.7C355.3 213.5 354.8 214.4 354.1 214.8L193 307.8C192.3 308.2 191.8 307.9 191.8 307.1Z" fill="#323B70"/>
<path fill-rule="evenodd" clip-rule="evenodd" d="M193.1 314.2L355.5 220.4C358.8 218.5 363.8 218.3 366.7 219.9L464.4 276.3C467.2 277.9 466.9 280.8 463.5 282.8L301.1 376.6C297.8 378.5 292.8 378.7 289.9 377.1L192.2 320.7C189.4 319 189.8 316.1 193.1 314.2Z" fill="#EBF0FA"/>
<path fill-rule="evenodd" clip-rule="evenodd" d="M399.3 308.5L345.7 339.4C344.4 340.1 342.2 340 340.8 339.2L316.2 325C314.7 324.2 314.6 322.9 315.8 322.2L369.4 291.3C370.7 290.6 372.9 290.7 374.3 291.5L398.9 305.7C400.4 306.5 400.6 307.8 399.3 308.5Z" fill="#DCE4F5"/>
<path d="M402.8 317.8C402.5 317.8 402.1 317.8 401.8 317.8C400.8 317.9 399.7 318.2 398.8 318.7L361 340.5C359.8 341.2 359.2 342.1 359.4 342.8C359.7 342.8 360.1 342.8 360.4 342.8C361.4 342.7 362.5 342.4 363.4 341.9L401.2 320.1C402.4 319.4 403 318.5 402.8 317.8Z" fill="#F0F3FA"/>
<path d="M371.6 256.8L364.5 260.9C364.1 261.2 363.3 261.2 362.9 260.9L355.9 256.8C355.7 256.7 355.6 256.5 355.6 256.3V256.2V256.1C355.6 256.1 355.6 256.1 355.6 256C355.6 256 355.6 256 355.6 255.9C355.6 255.7 355.7 255.5 355.9 255.4L363 251.3C363.4 251 364.2 251 364.6 251.3L371.6 255.4C371.8 255.5 371.9 255.7 371.9 255.9C371.9 255.9 371.9 255.9 371.9 256C371.9 256 371.9 256 371.9 256.1V256.2V256.3C372 256.5 371.8 256.6 371.6 256.8Z" fill="#37336C"/>
<path d="M302.1 309.4L295 313.5C294.5 313.8 293.8 313.8 293.4 313.5L286.3 309.4C286.1 309.3 286 309.1 286 308.9V308.8V308.7C286 308.7 286 308.7 286 308.6C286 308.6 286 308.6 286 308.5C286 308.3 286.1 308.1 286.3 308L293.5 303.9C294 303.6 294.7 303.6 295.1 303.9L302.2 308C302.4 308.1 302.5 308.3 302.5 308.5C302.5 308.5 302.5 308.5 302.5 308.6C302.5 308.6 302.5 308.6 302.5 308.7V308.8V308.9C302.5 309.1 302.4 309.3 302.1 309.4Z" fill="#37336C"/>
<path d="M291.4 315.7L284.2 319.8C283.7 320.1 283 320.1 282.6 319.8L275.5 315.7C275.3 315.6 275.2 315.4 275.2 315.2V315.1V315C275.2 315 275.2 315 275.2 314.9C275.2 314.9 275.2 314.9 275.2 314.8C275.2 314.6 275.3 314.4 275.5 314.3L282.7 310.2C283.2 309.9 283.9 309.9 284.3 310.2L291.4 314.3C291.6 314.4 291.7 314.6 291.7 314.8C291.7 314.8 291.7 314.8 291.7 314.9C291.7 314.9 291.7 314.9 291.7 315V315.1V315.2C291.7 315.3 291.6 315.5 291.4 315.7Z" fill="#37336C"/>
<path d="M328.9 281.4L321.8 285.5C321.3 285.8 320.6 285.8 320.2 285.5L313.2 281.4C313 281.3 312.9 281.1 312.9 280.9V280.8V280.7C312.9 280.7 312.9 280.7 312.9 280.6C312.9 280.6 312.9 280.6 312.9 280.5C312.9 280.3 313 280.1 313.2 280L320.3 275.9C320.8 275.6 321.5 275.6 321.9 275.9L328.9 280C329.1 280.1 329.2 280.3 329.2 280.5C329.2 280.5 329.2 280.5 329.2 280.6C329.2 280.6 329.2 280.6 329.2 280.7V280.8V280.9C329.3 281.1 329.2 281.3 328.9 281.4Z" fill="#37336C"/>
<path d="M318.2 287.6L311.1 291.7C310.6 292 309.9 292 309.5 291.7L302.5 287.6C302.3 287.5 302.2 287.3 302.2 287.1V287V286.9C302.2 286.9 302.2 286.9 302.2 286.8C302.2 286.8 302.2 286.8 302.2 286.7C302.2 286.5 302.3 286.3 302.5 286.2L309.6 282.1C310.1 281.8 310.8 281.8 311.2 282.1L318.2 286.2C318.4 286.3 318.5 286.5 318.5 286.7C318.5 286.7 318.5 286.7 318.5 286.8C318.5 286.8 318.5 286.8 318.5 286.9V287V287.1C318.6 287.3 318.5 287.5 318.2 287.6Z" fill="#37336C"/>
<path d="M364.9 248.2L357.8 252.3C357.4 252.6 356.6 252.6 356.2 252.3L349.2 248.2C349 248.1 348.9 247.9 348.9 247.7V247.6V247.5C348.9 247.5 348.9 247.5 348.9 247.4C348.9 247.4 348.9 247.4 348.9 247.3C348.9 247.1 349 246.9 349.2 246.8L356.3 242.7C356.7 242.4 357.5 242.4 357.9 242.7L364.9 246.8C365.1 246.9 365.2 247.1 365.2 247.3C365.2 247.3 365.2 247.3 365.2 247.4C365.2 247.4 365.2 247.4 365.2 247.5V247.6V247.7C365.2 247.9 365.1 248 364.9 248.2Z" fill="#37336C"/>
<path d="M361 262.9L353.9 267C353.5 267.3 352.7 267.3 352.3 267L345.3 262.9C345.1 262.8 345 262.6 345 262.4V262.3V262.2C345 262.2 345 262.2 345 262.1C345 262.1 345 262.1 345 262C345 261.8 345.1 261.6 345.3 261.5L352.4 257.4C352.8 257.1 353.6 257.1 354 257.4L361 261.5C361.2 261.6 361.3 261.8 361.3 262C361.3 262 361.3 262 361.3 262.1C361.3 262.1 361.3 262.1 361.3 262.2V262.3V262.4C361.3 262.6 361.2 262.8 361 262.9Z" fill="#37336C"/>
<path d="M339.6 275.2L332.5 279.3C332 279.6 331.3 279.6 330.9 279.3L323.9 275.2C323.7 275.1 323.6 274.9 323.6 274.7V274.6V274.5C323.6 274.5 323.6 274.5 323.6 274.4C323.6 274.4 323.6 274.4 323.6 274.3C323.6 274.1 323.7 273.9 323.9 273.8L331 269.7C331.5 269.4 332.2 269.4 332.6 269.7L339.6 273.8C339.8 273.9 339.9 274.1 339.9 274.3C339.9 274.3 339.9 274.3 339.9 274.4C339.9 274.4 339.9 274.4 339.9 274.5V274.6V274.7C340 274.9 339.9 275.1 339.6 275.2Z" fill="#37336C"/>
<path d="M350.3 269.1L343.2 273.2C342.7 273.5 342 273.5 341.6 273.2L334.6 269.1C334.4 269 334.3 268.8 334.3 268.6V268.5V268.4C334.3 268.4 334.3 268.4 334.3 268.3C334.3 268.3 334.3 268.3 334.3 268.2C334.3 268 334.4 267.8 334.6 267.7L341.7 263.6C342.2 263.3 342.9 263.3 343.3 263.6L350.3 267.7C350.5 267.8 350.6 268 350.6 268.2C350.6 268.2 350.6 268.2 350.6 268.3C350.6 268.3 350.6 268.3 350.6 268.4V268.5V268.6C350.7 268.8 350.5 268.9 350.3 269.1Z" fill="#37336C"/>
<path d="M241.3 309.6C241.3 309.5 241.3 309.5 241.3 309.4C241.3 309.4 241.3 309.4 241.3 309.3C241.3 309.3 241.3 309.3 241.3 309.2C241.3 309 241.4 308.8 241.6 308.7L248.8 304.6C249.3 304.3 250 304.3 250.4 304.6L257.5 308.7C257.7 308.8 257.8 309 257.8 309.2C257.8 309.2 257.8 309.2 257.8 309.3C257.8 309.3 257.8 309.3 257.8 309.4V309.5V309.6C257.8 309.8 257.7 310 257.5 310.1L250.3 314.2C249.8 314.5 249.1 314.5 248.7 314.2L241.6 310.1C241.4 310 241.3 309.8 241.3 309.6Z" fill="#37336C"/>
<path d="M307.5 293.8L300.4 297.9C299.9 298.2 299.2 298.2 298.8 297.9L291.7 293.8C291.5 293.7 291.4 293.5 291.4 293.3V293.2V293.1C291.4 293.1 291.4 293.1 291.4 293C291.4 293 291.4 293 291.4 292.9C291.4 292.7 291.5 292.5 291.7 292.4L298.8 288.3C299.3 288 300 288 300.4 288.3L307.4 292.4C307.6 292.5 307.7 292.7 307.7 292.9C307.7 292.9 307.7 292.9 307.7 293C307.7 293 307.7 293 307.7 293.1V293.2V293.3C307.9 293.5 307.7 293.7 307.5 293.8Z" fill="#37336C"/>
<path d="M296.8 300L289.7 304.1C289.2 304.4 288.5 304.4 288.1 304.1L281 300C280.8 299.9 280.7 299.7 280.7 299.5V299.4V299.3C280.7 299.3 280.7 299.3 280.7 299.2C280.7 299.2 280.7 299.2 280.7 299.1C280.7 298.9 280.8 298.7 281 298.6L288.2 294.5C288.7 294.2 289.4 294.2 289.8 294.5L296.9 298.6C297.1 298.7 297.2 298.9 297.2 299.1C297.2 299.1 297.2 299.1 297.2 299.2C297.2 299.2 297.2 299.2 297.2 299.3V299.4V299.5C297.1 299.7 297 299.9 296.8 300Z" fill="#37336C"/>
<path d="M366.3 272.3L359.2 276.4C358.8 276.7 358 276.7 357.6 276.4L350.6 272.3C350.4 272.2 350.3 272 350.3 271.8V271.7V271.6C350.3 271.6 350.3 271.6 350.3 271.5C350.3 271.5 350.3 271.5 350.3 271.4C350.3 271.2 350.4 271 350.6 270.9L357.7 266.8C358.1 266.5 358.9 266.5 359.3 266.8L366.3 270.9C366.5 271 366.6 271.2 366.6 271.4C366.6 271.4 366.6 271.4 366.6 271.5C366.6 271.5 366.6 271.5 366.6 271.6V271.7V271.8C366.6 272 366.5 272.2 366.3 272.3Z" fill="#37336C"/>
<path d="M286 306.2L278.8 310.3C278.3 310.6 277.6 310.6 277.2 310.3L270.1 306.2C269.9 306.1 269.8 305.9 269.8 305.7V305.6V305.5C269.8 305.5 269.8 305.5 269.8 305.4C269.8 305.4 269.8 305.4 269.8 305.3C269.8 305.1 269.9 304.9 270.1 304.8L277.3 300.7C277.8 300.4 278.5 300.4 278.9 300.7L286 304.8C286.2 304.9 286.3 305.1 286.3 305.3C286.3 305.3 286.3 305.3 286.3 305.4C286.3 305.4 286.3 305.4 286.3 305.5V305.6V305.7C286.3 305.9 286.2 306.1 286 306.2Z" fill="#37336C"/>
<path d="M345 284.6L337.9 288.7C337.4 289 336.7 289 336.3 288.7L329.3 284.6C329.1 284.5 329 284.3 329 284.1V284V283.9C329 283.9 329 283.9 329 283.8C329 283.8 329 283.8 329 283.7C329 283.5 329.1 283.3 329.3 283.2L336.4 279.1C336.9 278.8 337.6 278.8 338 279.1L345 283.2C345.2 283.3 345.3 283.5 345.3 283.7C345.3 283.7 345.3 283.7 345.3 283.8C345.3 283.8 345.3 283.8 345.3 283.9V284V284.1C345.3 284.3 345.2 284.5 345 284.6Z" fill="#37336C"/>
<path d="M334.3 290.8L327.2 294.9C326.7 295.2 326 295.2 325.6 294.9L318.6 290.8C318.4 290.7 318.3 290.5 318.3 290.3V290.2V290.1C318.3 290.1 318.3 290.1 318.3 290C318.3 290 318.3 290 318.3 289.9C318.3 289.7 318.4 289.5 318.6 289.4L325.7 285.3C326.2 285 326.9 285 327.3 285.3L334.3 289.4C334.5 289.5 334.6 289.7 334.6 289.9C334.6 289.9 334.6 289.9 334.6 290C334.6 290 334.6 290 334.6 290.1V290.2V290.3C334.6 290.5 334.5 290.7 334.3 290.8Z" fill="#37336C"/>
<path d="M323.6 297L316.5 301.1C316 301.4 315.3 301.4 314.9 301.1L307.9 297C307.7 296.9 307.6 296.7 307.6 296.5V296.4V296.3C307.6 296.3 307.6 296.3 307.6 296.2C307.6 296.2 307.6 296.2 307.6 296.1C307.6 295.9 307.7 295.7 307.9 295.6L315 291.5C315.5 291.2 316.2 291.2 316.6 291.5L323.6 295.6C323.8 295.7 323.9 295.9 323.9 296.1C323.9 296.1 323.9 296.1 323.9 296.2C323.9 296.2 323.9 296.2 323.9 296.3V296.4V296.5C323.9 296.7 323.8 296.9 323.6 297Z" fill="#37336C"/>
<path d="M312.9 303.2L305.8 307.3C305.3 307.6 304.6 307.6 304.2 307.3L297.1 303.2C296.9 303.1 296.8 302.9 296.8 302.7V302.6V302.5C296.8 302.5 296.8 302.5 296.8 302.4C296.8 302.4 296.8 302.4 296.8 302.3C296.8 302.1 296.9 301.9 297.1 301.8L304.2 297.7C304.7 297.4 305.4 297.4 305.8 297.7L312.8 301.8C313 301.9 313.1 302.1 313.1 302.3C313.1 302.3 313.1 302.3 313.1 302.4C313.1 302.4 313.1 302.4 313.1 302.5V302.6V302.7C313.2 302.9 313.1 303.1 312.9 303.2Z" fill="#37336C"/>
<path d="M355.6 278.5L348.5 282.6C348.1 282.9 347.3 282.9 346.9 282.6L339.9 278.5C339.7 278.4 339.6 278.2 339.6 278V277.9V277.8C339.6 277.8 339.6 277.8 339.6 277.7C339.6 277.7 339.6 277.7 339.6 277.6C339.6 277.4 339.7 277.2 339.9 277.1L347 273C347.4 272.7 348.2 272.7 348.6 273L355.6 277.1C355.8 277.2 355.9 277.4 355.9 277.6C355.9 277.6 355.9 277.6 355.9 277.7C355.9 277.7 355.9 277.7 355.9 277.8V277.9V278C356 278.2 355.9 278.3 355.6 278.5Z" fill="#37336C"/>
<path d="M379.4 239.8L368.5 246.1C368.1 246.4 367.3 246.4 366.9 246.1L359.9 242C359.7 241.9 359.6 241.7 359.6 241.5V241.4V241.3C359.6 241.3 359.6 241.3 359.6 241.2C359.6 241.2 359.6 241.2 359.6 241.1C359.6 240.9 359.7 240.7 359.9 240.6L370.9 234.3C371.3 234 372.1 234 372.5 234.3L379.5 238.4C379.7 238.5 379.8 238.7 379.8 238.9C379.8 238.9 379.8 238.9 379.8 239C379.8 239 379.8 239 379.8 239.1V239.2V239.3C379.8 239.5 379.6 239.7 379.4 239.8Z" fill="#37336C"/>
<path d="M358.5 279.5C358.5 279.4 358.5 279.4 358.5 279.3C358.5 279.3 358.5 279.3 358.5 279.2C358.5 279.2 358.5 279.2 358.5 279.1C358.5 278.9 358.6 278.7 358.8 278.6L369.1 272.6C369.5 272.3 370.3 272.3 370.7 272.6L377.7 276.7C377.9 276.8 378 277 378 277.2C378 277.2 378 277.2 378 277.3C378 277.3 378 277.3 378 277.4V277.5V277.6C378 277.8 377.9 278 377.7 278.1L367.4 284.1C367 284.4 366.2 284.4 365.8 284.1L358.8 280C358.6 279.9 358.5 279.7 358.5 279.5Z" fill="#37336C"/>
<path d="M309.4 307.9C309.4 307.8 309.4 307.8 309.4 307.7C309.4 307.7 309.4 307.7 309.4 307.6C309.4 307.6 309.4 307.6 309.4 307.5C309.4 307.3 309.5 307.1 309.7 307L355.2 280.7C355.6 280.4 356.4 280.4 356.8 280.7L363.8 284.8C364 284.9 364.1 285.1 364.1 285.3C364.1 285.3 364.1 285.3 364.1 285.4C364.1 285.4 364.1 285.4 364.1 285.5V285.6V285.7C364.1 285.9 364 286.1 363.8 286.2L318.4 312.5C317.9 312.8 317.2 312.8 316.8 312.5L309.8 308.4C309.5 308.3 309.4 308.1 309.4 307.9Z" fill="#37336C"/>
<path d="M295.5 316C295.5 315.9 295.5 315.9 295.5 316C295.5 315.9 295.5 315.9 295.5 315.8C295.5 315.8 295.5 315.8 295.5 315.7C295.5 315.7 295.5 315.7 295.5 315.6C295.5 315.4 295.6 315.2 295.8 315.1L306.1 309.2C306.6 308.9 307.3 308.9 307.7 309.2L314.7 313.3C314.9 313.4 315 313.6 315 313.8C315 313.8 315 313.8 315 313.9C315 313.9 315 313.9 315 314V314.1V314.2C315 314.4 314.9 314.6 314.7 314.7L304.5 320.6C304 320.9 303.3 320.9 302.9 320.6L295.8 316.5C295.6 316.3 295.5 316.1 295.5 316Z" fill="#37336C"/>
<path d="M372.4 271.5C372.4 271.5 372.4 271.4 372.4 271.5C372.4 271.4 372.4 271.4 372.4 271.3C372.4 271.3 372.4 271.3 372.4 271.2C372.4 271.2 372.4 271.2 372.4 271.1C372.4 270.9 372.5 270.7 372.7 270.6L381.8 265.3C382.2 265 383 265 383.4 265.3L390.4 269.3C390.6 269.4 390.7 269.6 390.7 269.8C390.7 269.8 390.7 269.8 390.7 269.9C390.7 269.9 390.7 269.9 390.7 270V270.1V270.2C390.7 270.4 390.6 270.6 390.4 270.7L381.3 276C380.9 276.3 380.1 276.3 379.7 276L372.7 271.9C372.5 271.8 372.3 271.7 372.4 271.5Z" fill="#37336C"/>
<path d="M266.7 338.3C266.7 338.2 266.7 338.2 266.7 338.3C266.7 338.2 266.7 338.2 266.7 338.1C266.7 338.1 266.7 338.1 266.7 338C266.7 338 266.7 338 266.7 337.9C266.7 337.7 266.8 337.5 267 337.4L274.8 332.9C275.3 332.6 276 332.6 276.4 332.9L278.6 334.2C278.8 334.3 278.9 334.5 278.9 334.7C278.9 334.7 278.9 334.7 278.9 334.8C278.9 334.8 278.9 334.8 278.9 334.9V335V335.1C278.9 335.3 278.8 335.5 278.6 335.6L270.9 340.1C270.4 340.4 269.7 340.4 269.3 340.1L267.1 338.8C266.8 338.6 266.7 338.4 266.7 338.3Z" fill="#37336C"/>
<path d="M284.2 322.5C284.2 322.4 284.2 322.4 284.2 322.3C284.2 322.3 284.2 322.3 284.2 322.2C284.2 322.2 284.2 322.2 284.2 322.1C284.2 321.9 284.3 321.7 284.5 321.6L292.2 317.1C292.7 316.8 293.4 316.8 293.8 317.1L300.9 321.2C301.1 321.3 301.2 321.5 301.2 321.7C301.2 321.7 301.2 321.7 301.2 321.8C301.2 321.8 301.2 321.8 301.2 321.9V322V322.1C301.2 322.3 301.1 322.5 300.9 322.6L293.2 327.1C292.7 327.4 292 327.4 291.6 327.1L284.5 323C284.3 322.9 284.2 322.7 284.2 322.5Z" fill="#37336C"/>
<path d="M376.9 266.2L369.8 270.3C369.4 270.6 368.6 270.6 368.2 270.3L361.2 266.2C361 266.1 360.9 265.9 360.9 265.7V265.6V265.5C360.9 265.5 360.9 265.5 360.9 265.4C360.9 265.4 360.9 265.4 360.9 265.3C360.9 265.1 361 264.9 361.2 264.8L368.3 260.7C368.7 260.4 369.5 260.4 369.9 260.7L376.9 264.8C377.1 264.9 377.2 265.1 377.2 265.3C377.2 265.3 377.2 265.3 377.2 265.4C377.2 265.4 377.2 265.4 377.2 265.5V265.6V265.7C377.3 265.8 377.2 266 376.9 266.2Z" fill="#37336C"/>
<path d="M277.6 331.8C277.6 331.7 277.6 331.7 277.6 331.8C277.6 331.7 277.6 331.7 277.6 331.6C277.6 331.6 277.6 331.6 277.6 331.5C277.6 331.5 277.6 331.5 277.6 331.4C277.6 331.2 277.7 331 277.9 330.9L285.6 326.4C286.1 326.1 286.8 326.1 287.2 326.4L289.6 327.8C289.8 327.9 289.9 328.1 289.9 328.3C289.9 328.3 289.9 328.3 289.9 328.4C289.9 328.4 289.9 328.4 289.9 328.5V328.6V328.7C289.9 328.9 289.8 329.1 289.6 329.2L281.9 333.7C281.4 334 280.7 334 280.3 333.7L277.9 332.3C277.7 332.1 277.6 331.9 277.6 331.8Z" fill="#37336C"/>
<path d="M385 264.2C385 264.1 385 264.1 385 264.2C385 264.1 385 264.1 385 264C385 264 385 264 385 263.9C385 263.9 385 263.9 385 263.8C385 263.6 385.1 263.4 385.3 263.3L392.3 259.2C392.7 258.9 393.5 258.9 393.9 259.2L400.9 263.2C401.1 263.3 401.2 263.5 401.2 263.7C401.2 263.7 401.2 263.7 401.2 263.8C401.2 263.8 401.2 263.8 401.2 263.9V264V264.1C401.2 264.3 401.1 264.5 400.9 264.6L393.9 268.7C393.5 269 392.7 269 392.3 268.7L385.3 264.7C385.1 264.5 385 264.3 385 264.2Z" fill="#37336C"/>
<path d="M368.6 233.6L357.7 239.9C357.3 240.2 356.5 240.2 356.1 239.9L352.4 237.7C352.2 237.6 352.1 237.4 352.1 237.2V237.1V237C352.1 237 352.1 237 352.1 236.9C352.1 236.9 352.1 236.9 352.1 236.8C352.1 236.6 352.2 236.4 352.4 236.3L363.4 230C363.8 229.7 364.6 229.7 365 230L368.7 232.2C368.9 232.3 369 232.5 369 232.7C369 232.7 369 232.7 369 232.8C369 232.8 369 232.8 369 232.9V233V233.1C369 233.3 368.9 233.4 368.6 233.6Z" fill="#37336C"/>
<path d="M390.2 246.1L375.2 254.8C374.8 255.1 374 255.1 373.6 254.8L366.6 250.7C366.4 250.6 366.3 250.4 366.3 250.2V250.1V250C366.3 250 366.3 250 366.3 249.9C366.3 249.9 366.3 249.9 366.3 249.8C366.3 249.6 366.4 249.4 366.6 249.3L381.6 240.6C382 240.3 382.8 240.3 383.2 240.6L390.2 244.7C390.4 244.8 390.5 245 390.5 245.2C390.5 245.2 390.5 245.2 390.5 245.3C390.5 245.3 390.5 245.3 390.5 245.4V245.5V245.6C390.5 245.7 390.4 245.9 390.2 246.1Z" fill="#37336C"/>
<path d="M395.6 258C395.6 257.9 395.6 257.9 395.6 257.8C395.6 257.8 395.6 257.8 395.6 257.7C395.6 257.7 395.6 257.7 395.6 257.6C395.6 257.4 395.7 257.2 395.9 257.1L402.9 253C403.3 252.7 404.1 252.7 404.5 253L411.5 257C411.7 257.1 411.8 257.3 411.8 257.5C411.8 257.5 411.8 257.5 411.8 257.6C411.8 257.6 411.8 257.6 411.8 257.7V257.8V257.9C411.8 258.1 411.7 258.3 411.5 258.4L404.5 262.5C404.1 262.8 403.3 262.8 402.9 262.5L395.9 258.5C395.7 258.4 395.6 258.2 395.6 258Z" fill="#37336C"/>
<path d="M400.9 252.3L380.5 264.1C380.1 264.4 379.3 264.4 378.9 264.1L371.9 260C371.7 259.9 371.6 259.7 371.6 259.5V259.4V259.3C371.6 259.3 371.6 259.3 371.6 259.2C371.6 259.2 371.6 259.2 371.6 259.1C371.6 258.9 371.7 258.7 371.9 258.6L392.3 246.8C392.7 246.5 393.5 246.5 393.9 246.8L400.9 250.9C401.1 251 401.2 251.2 401.2 251.4C401.2 251.4 401.2 251.4 401.2 251.5C401.2 251.5 401.2 251.5 401.2 251.6V251.7V251.8C401.2 252 401.1 252.2 400.9 252.3Z" fill="#37336C"/>
<path d="M212.1 317.5C212.1 317.3 212.2 317.1 212.4 317L219.6 312.8C220.1 312.5 220.8 312.5 221.2 312.8L225 315C225.2 315.1 225.3 315.3 225.3 315.5C225.3 315.5 225.3 315.5 225.3 315.6C225.3 315.6 225.3 315.6 225.3 315.7V315.8V315.9C225.3 316.1 225.2 316.3 225 316.4L217.8 320.6C217.3 320.9 216.6 320.9 216.2 320.6L212.4 318.4C212.2 318.3 212.1 318.1 212.1 317.9V317.8V317.7C212.1 317.7 212.1 317.7 212.1 317.6C212.1 317.6 212.1 317.6 212.1 317.5Z" fill="#37336C"/>
<path d="M284.9 283.9L292 279.8C292.5 279.5 293.2 279.5 293.6 279.8L300.7 283.9C300.9 284 301 284.2 301 284.4C301 284.4 301 284.4 301 284.5C301 284.5 301 284.5 301 284.6V284.7V284.8C301 285 300.9 285.2 300.7 285.3L293.6 289.4C293.1 289.7 292.4 289.7 292 289.4L284.9 285.3C284.7 285.2 284.6 285 284.6 284.8V284.7V284.6C284.6 284.6 284.6 284.6 284.6 284.5C284.6 284.5 284.6 284.5 284.6 284.4C284.6 284.2 284.7 284 284.9 283.9Z" fill="#37336C"/>
<path d="M236.4 309.2C236.4 309.2 236.4 309.3 236.4 309.2C236.4 309.3 236.4 309.3 236.4 309.3C236.4 309.3 236.4 309.3 236.4 309.4V309.5V309.6C236.4 309.8 236.3 310 236.1 310.1L228.9 314.3C228.4 314.6 227.7 314.6 227.3 314.3L223.5 312.1C223.3 312 223.2 311.8 223.2 311.6V311.5V311.4C223.2 311.4 223.2 311.4 223.2 311.3C223.2 311.3 223.2 311.3 223.2 311.2C223.2 311 223.3 310.8 223.5 310.7L230.7 306.5C231.2 306.2 231.9 306.2 232.3 306.5L236.1 308.7C236.2 308.9 236.4 309.1 236.4 309.2Z" fill="#37336C"/>
<path d="M263.3 296.3L270.5 292.2C271 291.9 271.7 291.9 272.1 292.2L279.2 296.3C279.4 296.4 279.5 296.6 279.5 296.8C279.5 296.8 279.5 296.8 279.5 296.9C279.5 296.9 279.5 296.9 279.5 297V297.1V297.2C279.5 297.4 279.4 297.6 279.2 297.7L272 301.8C271.5 302.1 270.8 302.1 270.4 301.8L263.3 297.7C263.1 297.6 263 297.4 263 297.2V297.1V297C263 297 263 297 263 296.9C263 296.9 263 296.9 263 296.8C263 296.7 263.1 296.5 263.3 296.3Z" fill="#37336C"/>
<path d="M274.1 290.1L281.3 286C281.8 285.7 282.5 285.7 282.9 286L290 290.1C290.2 290.2 290.3 290.4 290.3 290.6C290.3 290.6 290.3 290.6 290.3 290.7C290.3 290.7 290.3 290.7 290.3 290.8V290.9V291C290.3 291.2 290.2 291.4 290 291.5L282.8 295.6C282.3 295.9 281.6 295.9 281.2 295.6L274.1 291.5C273.9 291.4 273.8 291.2 273.8 291V290.9V290.8C273.8 290.8 273.8 290.8 273.8 290.7C273.8 290.7 273.8 290.7 273.8 290.6C273.8 290.4 273.9 290.3 274.1 290.1Z" fill="#37336C"/>
<path d="M261.9 334.5L269.7 330C270.2 329.7 270.9 329.7 271.3 330L273.3 331.2C273.5 331.3 273.6 331.5 273.6 331.7C273.6 331.7 273.6 331.7 273.6 331.8C273.6 331.8 273.6 331.8 273.6 331.9V332V332.1C273.6 332.3 273.5 332.5 273.3 332.6L265.5 337.1C265 337.4 264.3 337.4 263.9 337.1L261.9 335.9C261.7 335.8 261.6 335.6 261.6 335.4V335.3V335.2C261.6 335.2 261.6 335.2 261.6 335.1C261.6 335.1 261.6 335.1 261.6 335C261.6 334.8 261.7 334.6 261.9 334.5Z" fill="#37336C"/>
<path d="M264.7 320.7L271.9 316.6C272.4 316.3 273.1 316.3 273.5 316.6L280.6 320.7C280.8 320.8 280.9 321 280.9 321.2C280.9 321.2 280.9 321.2 280.9 321.3C280.9 321.3 280.9 321.3 280.9 321.4V321.5V321.6C280.9 321.8 280.8 322 280.6 322.1L273.4 326.2C272.9 326.5 272.2 326.5 271.8 326.2L264.7 322.1C264.5 322 264.4 321.8 264.4 321.6V321.5V321.4C264.4 321.4 264.4 321.4 264.4 321.3C264.4 321.3 264.4 321.3 264.4 321.2C264.4 321 264.5 320.8 264.7 320.7Z" fill="#37336C"/>
<path d="M230.8 315.1L238 310.9C238.5 310.6 239.2 310.6 239.6 310.9L246.7 315C246.9 315.1 247 315.3 247 315.5C247 315.5 247 315.5 247 315.6C247 315.6 247 315.6 247 315.7V315.8V315.9C247 316.1 246.9 316.3 246.7 316.4L239.5 320.6C239 320.9 238.3 320.9 237.9 320.6L230.8 316.5C230.6 316.4 230.5 316.2 230.5 316V315.9V315.8C230.5 315.8 230.5 315.8 230.5 315.7C230.5 315.7 230.5 315.7 230.5 315.6C230.5 315.4 230.6 315.2 230.8 315.1Z" fill="#37336C"/>
<path d="M252.5 302.6L259.7 298.5C260.2 298.2 260.9 298.2 261.3 298.5L268.4 302.6C268.6 302.7 268.7 302.9 268.7 303.1C268.7 303.1 268.7 303.1 268.7 303.2C268.7 303.2 268.7 303.2 268.7 303.3V303.4V303.5C268.7 303.7 268.6 303.9 268.4 304L261.2 308.1C260.7 308.4 260 308.4 259.6 308.1L252.5 304C252.3 303.9 252.2 303.7 252.2 303.5V303.4V303.3C252.2 303.3 252.2 303.3 252.2 303.2C252.2 303.2 252.2 303.2 252.2 303.1C252.2 302.9 252.3 302.7 252.5 302.6Z" fill="#37336C"/>
<path d="M248.5 317.5L255.7 313.4C256.2 313.1 256.9 313.1 257.3 313.4L264.4 317.5C264.6 317.6 264.7 317.8 264.7 318C264.7 318 264.7 318 264.7 318.1C264.7 318.1 264.7 318.1 264.7 318.2V318.3V318.4C264.7 318.6 264.6 318.8 264.4 318.9L257.2 323C256.7 323.3 256 323.3 255.6 323L248.5 318.9C248.3 318.8 248.2 318.6 248.2 318.4V318.3V318.2C248.2 318.2 248.2 318.2 248.2 318.1C248.2 318.1 248.2 318.1 248.2 318C248.1 317.8 248.3 317.6 248.5 317.5Z" fill="#37336C"/>
<path d="M259.3 311.2L266.5 307.1C267 306.8 267.7 306.8 268.1 307.1L275.2 311.2C275.4 311.3 275.5 311.5 275.5 311.7C275.5 311.7 275.5 311.7 275.5 311.8C275.5 311.8 275.5 311.8 275.5 311.9V312V312.1C275.5 312.3 275.4 312.5 275.2 312.6L268 316.7C267.5 317 266.8 317 266.4 316.7L259.3 312.6C259.1 312.5 259 312.3 259 312.1V312V311.9C259 311.9 259 311.9 259 311.8C259 311.8 259 311.8 259 311.7C259 311.5 259.1 311.4 259.3 311.2Z" fill="#37336C"/>
<path d="M333.1 253.4C333.1 253.5 333.1 253.5 333.1 253.5C333.1 253.5 333.1 253.5 333.1 253.6V253.7V253.8C333.1 254 333 254.2 332.8 254.3L325.7 258.4C325.2 258.7 324.5 258.7 324.1 258.4L320.4 256.2C320.2 256.1 320.1 255.9 320.1 255.7V255.6V255.5C320.1 255.5 320.1 255.5 320.1 255.4C320.1 255.4 320.1 255.4 320.1 255.3C320.1 255.1 320.2 254.9 320.4 254.8L327.5 250.7C328 250.4 328.7 250.4 329.1 250.7L332.8 252.9C333 253.1 333.2 253.2 333.1 253.4Z" fill="#37336C"/>
<path d="M354.5 241.1C354.5 241.1 354.5 241.2 354.5 241.1C354.5 241.2 354.5 241.2 354.5 241.2C354.5 241.2 354.5 241.2 354.5 241.3V241.4V241.5C354.5 241.7 354.4 241.9 354.2 242L347 246C346.6 246.3 345.8 246.3 345.4 246L341.7 243.8C341.5 243.7 341.4 243.5 341.4 243.3V243.2V243.1C341.4 243.1 341.4 243.1 341.4 243C341.4 243 341.4 243 341.4 242.9C341.4 242.7 341.5 242.5 341.7 242.4L348.8 238.3C349.2 238 350 238 350.4 238.3L354.1 240.5C354.4 240.8 354.5 241 354.5 241.1Z" fill="#37336C"/>
<path d="M343.8 247.3C343.8 247.4 343.8 247.4 343.8 247.4C343.8 247.4 343.8 247.4 343.8 247.5V247.6V247.7C343.8 247.9 343.7 248.1 343.5 248.2L336.4 252.3C336 252.6 335.2 252.6 334.8 252.3L331 250C330.8 249.9 330.7 249.7 330.7 249.5V249.4V249.3C330.7 249.3 330.7 249.3 330.7 249.2C330.7 249.2 330.7 249.2 330.7 249.1C330.7 248.9 330.8 248.7 331 248.6L338.1 244.5C338.5 244.2 339.3 244.2 339.7 244.5L343.4 246.7C343.7 246.9 343.8 247.1 343.8 247.3Z" fill="#37336C"/>
<path d="M311.8 265.7C311.8 265.8 311.8 265.8 311.8 265.7C311.8 265.8 311.8 265.8 311.8 265.8C311.8 265.8 311.8 265.8 311.8 265.9V266V266.1C311.8 266.3 311.7 266.5 311.5 266.6L304.4 270.7C303.9 271 303.2 271 302.8 270.7L299.1 268.5C298.9 268.4 298.8 268.2 298.8 268V267.9V267.8C298.8 267.8 298.8 267.8 298.8 267.7C298.8 267.7 298.8 267.7 298.8 267.6C298.8 267.4 298.9 267.2 299.1 267.1L306.2 263C306.7 262.7 307.4 262.7 307.8 263L311.5 265.2C311.7 265.4 311.8 265.6 311.8 265.7Z" fill="#37336C"/>
<path d="M295.7 277.7L302.8 273.6C303.3 273.3 304 273.3 304.4 273.6L311.4 277.7C311.6 277.8 311.7 278 311.7 278.2C311.7 278.2 311.7 278.2 311.7 278.3C311.7 278.3 311.7 278.3 311.7 278.4V278.5V278.6C311.7 278.8 311.6 279 311.4 279.1L304.3 283.2C303.8 283.5 303.1 283.5 302.7 283.2L295.6 279.1C295.4 279 295.3 278.8 295.3 278.6V278.5V278.4C295.3 278.4 295.3 278.4 295.3 278.3C295.3 278.3 295.3 278.3 295.3 278.2C295.3 278 295.4 277.8 295.7 277.7Z" fill="#37336C"/>
<path d="M256 343.7L263.8 339.2C264.3 338.9 265 338.9 265.4 339.2L267.8 340.6C268 340.7 268.1 340.9 268.1 341.1C268.1 341.1 268.1 341.1 268.1 341.2C268.1 341.2 268.1 341.2 268.1 341.3V341.4V341.5C268.1 341.7 268 341.9 267.8 342L260 346.5C259.5 346.8 258.8 346.8 258.4 346.5L256 345C255.8 344.9 255.7 344.7 255.7 344.5V344.4V344.3C255.7 344.3 255.7 344.3 255.7 344.2C255.7 344.2 255.7 344.2 255.7 344.1C255.6 344 255.8 343.8 256 343.7Z" fill="#37336C"/>
<path d="M230.9 327.6L244.8 319.6C245.3 319.3 246 319.3 246.4 319.6L253.5 323.7C253.7 323.8 253.8 324 253.8 324.2C253.8 324.2 253.8 324.2 253.8 324.3C253.8 324.3 253.8 324.3 253.8 324.4V324.5V324.6C253.8 324.8 253.7 325 253.5 325.1L239.6 333.1C239.1 333.4 238.4 333.4 238 333.1L230.9 329C230.7 328.9 230.6 328.7 230.6 328.5V328.4V328.3C230.6 328.3 230.6 328.3 230.6 328.2C230.6 328.2 230.6 328.2 230.6 328.1C230.6 327.9 230.7 327.7 230.9 327.6Z" fill="#37336C"/>
<path d="M220 321.3L227.2 317.1C227.7 316.8 228.4 316.8 228.8 317.1L235.9 321.2C236.1 321.3 236.2 321.5 236.2 321.7C236.2 321.7 236.2 321.7 236.2 321.8C236.2 321.8 236.2 321.8 236.2 321.9V322V322.1C236.2 322.3 236.1 322.5 235.9 322.6L228.7 326.8C228.2 327.1 227.5 327.1 227.1 326.8L220 322.7C219.8 322.6 219.7 322.4 219.7 322.2V322.1V322C219.7 322 219.7 322 219.7 321.9C219.7 321.9 219.7 321.9 219.7 321.8C219.6 321.6 219.7 321.5 220 321.3Z" fill="#37336C"/>
<path d="M301 271.9C301 271.9 301 272 301 271.9C301 272 301 272 301 272C301 272 301 272 301 272.1V272.2V272.3C301 272.5 300.9 272.7 300.7 272.8L293.6 276.9C293.1 277.2 292.4 277.2 292 276.9L288.2 274.7C288 274.6 287.9 274.4 287.9 274.2V274.1V274C287.9 274 287.9 274 287.9 273.9C287.9 273.9 287.9 273.9 287.9 273.8C287.9 273.6 288 273.4 288.2 273.3L295.3 269.2C295.8 268.9 296.5 268.9 296.9 269.2L300.7 271.4C300.9 271.6 301.1 271.8 301 271.9Z" fill="#37336C"/>
<path d="M241.9 333.9L261.1 322.8C261.6 322.5 262.3 322.5 262.7 322.8L269.8 326.9C270 327 270.1 327.2 270.1 327.4C270.1 327.4 270.1 327.4 270.1 327.5C270.1 327.5 270.1 327.5 270.1 327.6V327.7V327.8C270.1 328 270 328.2 269.8 328.3L250.6 339.4C250.1 339.7 249.4 339.7 249 339.4L241.9 335.3C241.7 335.2 241.6 335 241.6 334.8V334.7V334.6C241.6 334.6 241.6 334.6 241.6 334.5C241.6 334.5 241.6 334.5 241.6 334.4C241.5 334.2 241.6 334 241.9 333.9Z" fill="#37336C"/>
<path d="M322.5 259.6C322.5 259.7 322.5 259.7 322.5 259.7C322.5 259.7 322.5 259.7 322.5 259.8V259.9V260C322.5 260.2 322.4 260.4 322.2 260.5L315.1 264.6C314.6 264.9 313.9 264.9 313.5 264.6L309.8 262.4C309.6 262.3 309.5 262.1 309.5 261.9V261.8V261.7C309.5 261.7 309.5 261.7 309.5 261.6C309.5 261.6 309.5 261.6 309.5 261.5C309.5 261.3 309.6 261.1 309.8 261L316.9 256.9C317.4 256.6 318.1 256.6 318.5 256.9L322.2 259.1C322.4 259.2 322.5 259.4 322.5 259.6Z" fill="#37336C"/>
<path d="M338.5 253L345.6 248.9C346 248.6 346.8 248.6 347.2 248.9L354.2 253C354.4 253.1 354.5 253.3 354.5 253.5C354.5 253.5 354.5 253.5 354.5 253.6C354.5 253.6 354.5 253.6 354.5 253.7V253.8V253.9C354.5 254.1 354.4 254.3 354.2 254.4L347.1 258.5C346.7 258.8 345.9 258.8 345.5 258.5L338.5 254.4C338.3 254.3 338.2 254.1 338.2 253.9V253.8V253.7C338.2 253.7 338.2 253.7 338.2 253.6C338.2 253.6 338.2 253.6 338.2 253.5C338.2 253.3 338.3 253.2 338.5 253Z" fill="#37336C"/>
<path d="M327.9 259.2L335 255.1C335.5 254.8 336.2 254.8 336.6 255.1L343.6 259.2C343.8 259.3 343.9 259.5 343.9 259.7C343.9 259.7 343.9 259.7 343.9 259.8C343.9 259.8 343.9 259.8 343.9 259.9V260V260.1C343.9 260.3 343.8 260.5 343.6 260.6L336.5 264.7C336 265 335.3 265 334.9 264.7L327.9 260.6C327.7 260.5 327.6 260.3 327.6 260.1V260V259.9C327.6 259.9 327.6 259.9 327.6 259.8C327.6 259.8 327.6 259.8 327.6 259.7C327.5 259.5 327.6 259.3 327.9 259.2Z" fill="#37336C"/>
<path d="M317.1 265.3L324.2 261.2C324.7 260.9 325.4 260.9 325.8 261.2L332.8 265.3C333 265.4 333.1 265.6 333.1 265.8C333.1 265.8 333.1 265.8 333.1 265.9C333.1 265.9 333.1 265.9 333.1 266V266.1V266.2C333.1 266.4 333 266.6 332.8 266.7L325.7 270.8C325.2 271.1 324.5 271.1 324.1 270.8L317.1 266.7C316.9 266.6 316.8 266.4 316.8 266.2V266.1V266C316.8 266 316.8 266 316.8 265.9C316.8 265.9 316.8 265.9 316.8 265.8C316.8 265.7 316.9 265.5 317.1 265.3Z" fill="#37336C"/>
<path d="M290.3 278.1C290.3 278.2 290.3 278.2 290.3 278.2C290.3 278.2 290.3 278.2 290.3 278.3V278.4V278.5C290.3 278.7 290.2 278.9 290 279L282.9 283.1C282.4 283.4 281.7 283.4 281.3 283.1L277.5 280.9C277.3 280.8 277.2 280.6 277.2 280.4V280.3V280.2C277.2 280.2 277.2 280.2 277.2 280.1C277.2 280.1 277.2 280.1 277.2 280C277.2 279.8 277.3 279.6 277.5 279.5L284.6 275.4C285.1 275.1 285.8 275.1 286.2 275.4L290 277.6C290.2 277.8 290.3 277.9 290.3 278.1Z" fill="#37336C"/>
<path d="M306.4 271.5L313.5 267.4C314 267.1 314.7 267.1 315.1 267.4L322.1 271.5C322.3 271.6 322.4 271.8 322.4 272C322.4 272 322.4 272 322.4 272.1C322.4 272.1 322.4 272.1 322.4 272.2V272.3V272.4C322.4 272.6 322.3 272.8 322.1 272.9L315 277C314.5 277.3 313.8 277.3 313.4 277L306.4 272.9C306.2 272.8 306.1 272.6 306.1 272.4V272.3V272.2C306.1 272.2 306.1 272.2 306.1 272.1C306.1 272.1 306.1 272.1 306.1 272C306.1 271.8 306.2 271.7 306.4 271.5Z" fill="#37336C"/>
<path d="M268.8 290.5C268.8 290.5 268.8 290.6 268.8 290.5C268.8 290.6 268.8 290.6 268.8 290.6C268.8 290.6 268.8 290.6 268.8 290.7V290.8V290.9C268.8 291.1 268.7 291.3 268.5 291.4L261.3 295.5C260.8 295.8 260.1 295.8 259.7 295.5L255.9 293.3C255.7 293.2 255.6 293 255.6 292.8V292.7V292.6C255.6 292.6 255.6 292.6 255.6 292.5C255.6 292.5 255.6 292.5 255.6 292.4C255.6 292.2 255.7 292 255.9 291.9L263.1 287.8C263.6 287.5 264.3 287.5 264.7 287.8L268.5 290C268.7 290.2 268.8 290.4 268.8 290.5Z" fill="#37336C"/>
<path d="M279.6 284.3C279.6 284.4 279.6 284.4 279.6 284.4C279.6 284.4 279.6 284.4 279.6 284.5V284.6V284.7C279.6 284.9 279.5 285.1 279.3 285.2L272.1 289.3C271.6 289.6 270.9 289.6 270.5 289.3L266.7 287.1C266.5 287 266.4 286.8 266.4 286.6V286.5V286.4C266.4 286.4 266.4 286.4 266.4 286.3C266.4 286.3 266.4 286.3 266.4 286.2C266.4 286 266.5 285.8 266.7 285.7L273.9 281.6C274.4 281.3 275.1 281.3 275.5 281.6L279.3 283.8C279.5 284 279.6 284.1 279.6 284.3Z" fill="#37336C"/>
<path d="M247.2 303C247.2 303.1 247.2 303.1 247.2 303.1C247.2 303.1 247.2 303.1 247.2 303.2V303.3V303.4C247.2 303.6 247.1 303.8 246.9 303.9L239.7 308C239.2 308.3 238.5 308.3 238.1 308L234.3 305.8C234.1 305.7 234 305.5 234 305.3V305.2V305.1C234 305.1 234 305.1 234 305C234 305 234 305 234 304.9C234 304.7 234.1 304.5 234.3 304.4L241.5 300.3C242 300 242.7 300 243.1 300.3L246.9 302.5C247.1 302.6 247.2 302.8 247.2 303Z" fill="#37336C"/>
<path d="M258 296.8C258 296.9 258 296.9 258 296.9C258 296.9 258 296.9 258 297V297.1V297.2C258 297.4 257.9 297.6 257.7 297.7L250.5 301.8C250 302.1 249.3 302.1 248.9 301.8L245.1 299.6C244.9 299.5 244.8 299.3 244.8 299.1V299V298.9C244.8 298.9 244.8 298.9 244.8 298.8C244.8 298.8 244.8 298.8 244.8 298.7C244.8 298.5 244.9 298.3 245.1 298.2L252.3 294.1C252.8 293.8 253.5 293.8 253.9 294.1L257.7 296.3C257.9 296.4 258 296.6 258 296.8Z" fill="#37336C"/>
<path fill-rule="evenodd" clip-rule="evenodd" d="M258.3 345.9L255.9 344.5C255.4 344.2 255.5 343.8 255.9 343.6L263.7 339.1C264.2 338.8 264.9 338.8 265.3 339.1L267.7 340.5C268.2 340.8 268.1 341.2 267.7 341.4L259.9 345.9C259.5 346.2 258.8 346.2 258.3 345.9ZM249 338.8L241.9 334.7C241.4 334.4 241.5 334 241.9 333.8L261.1 322.7C261.6 322.4 262.3 322.4 262.7 322.7L269.8 326.8C270.2 327.1 270.2 327.5 269.8 327.7L250.6 338.8C250.2 339.1 249.4 339.1 249 338.8ZM238 332.6L230.9 328.5C230.4 328.2 230.5 327.8 230.9 327.6L244.8 319.6C245.3 319.3 246 319.3 246.4 319.6L253.5 323.7C254 324 253.9 324.4 253.5 324.6L239.6 332.6C239.2 332.8 238.5 332.8 238 332.6ZM227.1 326.3L220 322.2C219.5 321.9 219.6 321.5 220 321.3L227.2 317.1C227.7 316.8 228.4 316.8 228.8 317.1L235.9 321.2C236.4 321.5 236.3 321.9 235.9 322.1L228.7 326.3C228.3 326.6 227.5 326.6 227.1 326.3ZM237.9 320L230.8 315.9C230.3 315.6 230.4 315.2 230.8 315L238 310.8C238.5 310.5 239.2 310.5 239.6 310.8L246.7 314.9C247.2 315.2 247.1 315.6 246.7 315.8L239.5 320C239.1 320.3 238.4 320.3 237.9 320ZM248.8 313.8L241.7 309.7C241.2 309.4 241.3 309 241.7 308.8L248.9 304.7C249.4 304.4 250.1 304.4 250.5 304.7L257.6 308.8C258.1 309.1 258 309.5 257.6 309.7L250.4 313.8C250 314 249.2 314 248.8 313.8ZM259.6 307.5L252.5 303.4C252 303.1 252.1 302.7 252.5 302.5L259.7 298.4C260.2 298.1 260.9 298.1 261.3 298.4L268.4 302.5C268.8 302.8 268.8 303.2 268.4 303.4L261.2 307.5C260.8 307.8 260.1 307.8 259.6 307.5ZM270.4 301.3L263.3 297.2C262.9 296.9 262.9 296.5 263.3 296.3L270.5 292.2C271 291.9 271.7 291.9 272.1 292.2L279.2 296.3C279.6 296.6 279.6 297 279.2 297.2L272 301.3C271.6 301.6 270.9 301.6 270.4 301.3ZM281.2 295.1L274.1 291C273.7 290.7 273.7 290.3 274.1 290.1L281.3 286C281.8 285.7 282.5 285.7 282.9 286L290 290.1C290.4 290.4 290.4 290.8 290 291L282.8 295.1C282.4 295.4 281.7 295.4 281.2 295.1ZM292 288.9L284.9 284.8C284.5 284.5 284.5 284.1 284.9 283.9L292 279.8C292.5 279.5 293.2 279.5 293.6 279.8L300.7 283.9C301.1 284.2 301.1 284.6 300.7 284.8L293.6 288.9C293.2 289.1 292.4 289.1 292 288.9ZM302.7 282.7L295.6 278.6C295.2 278.3 295.2 277.9 295.6 277.7L302.7 273.6C303.2 273.3 303.9 273.3 304.3 273.6L311.3 277.7C311.7 278 311.7 278.4 311.3 278.6L304.2 282.7C303.9 282.9 303.2 282.9 302.7 282.7ZM313.5 276.5L306.5 272.4C306.1 272.1 306.1 271.7 306.5 271.5L313.6 267.4C314.1 267.1 314.8 267.1 315.2 267.4L322.2 271.5C322.6 271.8 322.6 272.2 322.2 272.4L315.1 276.5C314.6 276.8 313.9 276.8 313.5 276.5ZM317.1 266.3C316.7 266 316.7 265.6 317.1 265.4L324.2 261.3C324.7 261 325.4 261 325.8 261.3L332.8 265.4C333.2 265.7 333.2 266.1 332.8 266.3L325.7 270.4C325.2 270.7 324.5 270.7 324.1 270.4L317.1 266.3ZM327.8 260.1C327.4 259.8 327.4 259.4 327.8 259.2L334.9 255.1C335.4 254.8 336.1 254.8 336.5 255.1L343.5 259.2C343.9 259.5 343.9 259.9 343.5 260.1L336.4 264.2C335.9 264.5 335.2 264.5 334.8 264.2L327.8 260.1ZM338.5 253.9C338.1 253.6 338.1 253.2 338.5 253L345.6 248.9C346 248.6 346.8 248.6 347.2 248.9L354.2 253C354.6 253.3 354.6 253.7 354.2 253.9L347.1 258C346.7 258.3 345.9 258.3 345.5 258L338.5 253.9ZM349.2 247.8C348.8 247.5 348.8 247.1 349.2 246.9L356.3 242.8C356.7 242.5 357.5 242.5 357.9 242.8L364.9 246.9C365.3 247.2 365.3 247.6 364.9 247.8L357.8 251.9C357.4 252.2 356.6 252.2 356.2 251.9L349.2 247.8ZM359.9 241.7C359.5 241.4 359.5 241 359.9 240.8L370.9 234.5C371.3 234.2 372.1 234.2 372.5 234.5L379.5 238.6C379.9 238.9 379.9 239.3 379.5 239.5L368.6 245.8C368.2 246.1 367.4 246.1 367 245.8L359.9 241.7ZM216.3 320.1L212.5 317.9C212 317.6 212.1 317.2 212.5 317L219.7 312.8C220.2 312.5 220.9 312.5 221.3 312.8L225.1 315C225.6 315.3 225.5 315.7 225.1 315.9L217.9 320.1C217.5 320.3 216.7 320.3 216.3 320.1ZM227.2 313.8L223.4 311.6C222.9 311.3 223 310.9 223.4 310.7L230.6 306.5C231.1 306.2 231.8 306.2 232.2 306.5L236 308.7C236.5 309 236.4 309.4 236 309.6L228.8 313.8C228.3 314.1 227.6 314.1 227.2 313.8ZM238 307.6L234.2 305.4C233.7 305.1 233.8 304.7 234.2 304.5L241.4 300.4C241.9 300.1 242.6 300.1 243 300.4L246.8 302.6C247.3 302.9 247.2 303.3 246.8 303.5L239.6 307.6C239.2 307.8 238.5 307.8 238 307.6ZM248.8 301.3L245 299.1C244.5 298.8 244.6 298.4 245 298.2L252.2 294.1C252.7 293.8 253.4 293.8 253.8 294.1L257.6 296.3C258 296.6 258 297 257.6 297.2L250.4 301.3C250 301.6 249.3 301.6 248.8 301.3ZM259.6 295.1L255.8 292.9C255.4 292.6 255.4 292.2 255.8 292L263 287.9C263.5 287.6 264.2 287.6 264.6 287.9L268.4 290.1C268.8 290.4 268.8 290.8 268.4 291L261.2 295.1C260.8 295.3 260.1 295.4 259.6 295.1ZM270.4 288.9L266.6 286.7C266.2 286.4 266.2 286 266.6 285.8L273.8 281.7C274.3 281.4 275 281.4 275.4 281.7L279.2 283.9C279.6 284.2 279.6 284.6 279.2 284.8L272 288.9C271.6 289.1 270.9 289.1 270.4 288.9ZM281.2 282.7L277.4 280.5C277 280.2 277 279.8 277.4 279.6L284.5 275.5C285 275.2 285.7 275.2 286.1 275.5L289.9 277.7C290.3 278 290.3 278.4 289.9 278.6L282.8 282.7C282.4 282.9 281.6 282.9 281.2 282.7ZM291.9 276.5L288.1 274.3C287.7 274 287.7 273.6 288.1 273.4L295.2 269.3C295.7 269 296.4 269 296.8 269.3L300.6 271.5C301 271.8 301 272.2 300.6 272.4L293.5 276.5C293.1 276.7 292.4 276.7 291.9 276.5ZM302.7 270.3L299 268.1C298.6 267.8 298.6 267.4 299 267.2L306.1 263.1C306.6 262.8 307.3 262.8 307.7 263.1L311.4 265.3C311.8 265.6 311.8 266 311.4 266.2L304.3 270.3C303.9 270.5 303.1 270.5 302.7 270.3ZM309.7 261.9C309.3 261.6 309.3 261.2 309.7 261L316.8 256.9C317.3 256.6 318 256.6 318.4 256.9L322.1 259.1C322.5 259.4 322.5 259.8 322.1 260L315 264.1C314.5 264.4 313.8 264.4 313.4 264.1L309.7 261.9ZM320.4 255.8C320 255.5 320 255.1 320.4 254.9L327.5 250.8C328 250.5 328.7 250.5 329.1 250.8L332.8 253C333.2 253.3 333.2 253.7 332.8 253.9L325.7 258C325.2 258.3 324.5 258.3 324.1 258L320.4 255.8ZM331 249.6C330.6 249.3 330.6 248.9 331 248.7L338.1 244.6C338.5 244.3 339.3 244.3 339.7 244.6L343.4 246.8C343.8 247.1 343.8 247.5 343.4 247.7L336.3 251.8C335.9 252.1 335.1 252.1 334.7 251.8L331 249.6ZM341.7 243.5C341.3 243.2 341.3 242.8 341.7 242.6L348.8 238.5C349.2 238.2 350 238.2 350.4 238.5L354.1 240.7C354.5 241 354.5 241.4 354.1 241.6L347 245.7C346.6 246 345.8 246 345.4 245.7L341.7 243.5ZM352.4 237.3C352 237 352 236.6 352.4 236.4L363.4 230.1C363.8 229.8 364.6 229.8 365 230.1L368.7 232.3C369.1 232.6 369.1 233 368.7 233.2L357.8 239.5C357.4 239.8 356.6 239.8 356.2 239.5L352.4 237.3ZM381.6 240.7C382 240.4 382.8 240.4 383.2 240.7L390.2 244.8C390.6 245.1 390.6 245.5 390.2 245.7L375.2 254.4C374.8 254.7 374 254.7 373.6 254.4L366.6 250.3C366.2 250 366.2 249.6 366.6 249.4L381.6 240.7ZM392.3 246.9C392.7 246.6 393.5 246.6 393.9 246.9L400.9 251C401.3 251.3 401.3 251.7 400.9 251.9L380.5 263.7C380.1 264 379.3 264 378.9 263.7L371.9 259.6C371.5 259.3 371.5 258.9 371.9 258.7L392.3 246.9ZM403 253.1C403.4 252.8 404.2 252.8 404.6 253.1L411.6 257.1C412 257.4 412 257.8 411.6 258L404.6 262.1C404.2 262.4 403.4 262.4 403 262.1L396 258.1C395.6 257.8 395.6 257.4 396 257.2L403 253.1ZM401 263.3C401.4 263.6 401.4 264 401 264.2L394 268.3C393.6 268.6 392.8 268.6 392.4 268.3L385.4 264.3C385 264 385 263.6 385.4 263.4L392.4 259.3C392.8 259 393.6 259 394 259.3L401 263.3ZM390.4 269.4C390.8 269.7 390.8 270.1 390.4 270.3L381.3 275.6C380.9 275.9 380.1 275.9 379.7 275.6L372.7 271.5C372.3 271.2 372.3 270.8 372.7 270.6L381.8 265.3C382.2 265 383 265 383.4 265.3L390.4 269.4ZM362.9 260.5L355.9 256.4C355.5 256.1 355.5 255.7 355.9 255.5L363 251.4C363.4 251.1 364.2 251.1 364.6 251.4L371.6 255.5C372 255.8 372 256.2 371.6 256.4L364.5 260.5C364.1 260.7 363.4 260.7 362.9 260.5ZM376.9 265.8L369.8 269.9C369.4 270.2 368.6 270.2 368.2 269.9L361.2 265.8C360.8 265.5 360.8 265.1 361.2 264.9L368.3 260.8C368.7 260.5 369.5 260.5 369.9 260.8L376.9 264.9C377.4 265.1 377.4 265.5 376.9 265.8ZM377.7 276.7C378.1 277 378.1 277.4 377.7 277.6L367.4 283.6C367 283.9 366.2 283.9 365.8 283.6L358.8 279.5C358.4 279.2 358.4 278.8 358.8 278.6L369.1 272.6C369.5 272.3 370.3 272.3 370.7 272.6L377.7 276.7ZM350.3 267.7C350.7 268 350.7 268.4 350.3 268.6L343.2 272.7C342.7 273 342 273 341.6 272.7L334.6 268.6C334.2 268.3 334.2 267.9 334.6 267.7L341.7 263.6C342.2 263.3 342.9 263.3 343.3 263.6L350.3 267.7ZM352.3 266.6L345.3 262.5C344.9 262.2 344.9 261.8 345.3 261.6L352.4 257.5C352.8 257.2 353.6 257.2 354 257.5L361 261.6C361.4 261.9 361.4 262.3 361 262.5L353.9 266.6C353.4 266.9 352.7 266.9 352.3 266.6ZM350.6 271L357.7 266.9C358.1 266.6 358.9 266.6 359.3 266.9L366.3 271C366.7 271.3 366.7 271.7 366.3 271.9L359.2 276C358.8 276.3 358 276.3 357.6 276L350.6 271.9C350.2 271.7 350.2 271.3 350.6 271ZM355.6 278.1L348.5 282.2C348.1 282.5 347.3 282.5 346.9 282.2L339.9 278.1C339.5 277.8 339.5 277.4 339.9 277.2L347 273.1C347.4 272.8 348.2 272.8 348.6 273.1L355.6 277.2C356.1 277.4 356.1 277.8 355.6 278.1ZM363.8 284.8C364.2 285.1 364.2 285.5 363.8 285.7L318.4 312C317.9 312.3 317.2 312.3 316.8 312L309.8 307.9C309.4 307.6 309.4 307.2 309.8 307L355.3 280.7C355.7 280.4 356.5 280.4 356.9 280.7L363.8 284.8ZM300.5 288.4L307.5 292.5C307.9 292.8 307.9 293.2 307.5 293.4L300.4 297.5C299.9 297.8 299.2 297.8 298.8 297.5L291.7 293.4C291.3 293.1 291.3 292.7 291.7 292.5L298.8 288.4C299.3 288.1 300 288.1 300.5 288.4ZM307.8 295.7L314.9 291.6C315.4 291.3 316.1 291.3 316.5 291.6L323.5 295.7C323.9 296 323.9 296.4 323.5 296.6L316.4 300.7C315.9 301 315.2 301 314.8 300.7L307.8 296.6C307.3 296.4 307.4 296 307.8 295.7ZM311.2 282.2L318.2 286.3C318.6 286.6 318.6 287 318.2 287.2L311.1 291.3C310.6 291.6 309.9 291.6 309.5 291.3L302.5 287.2C302.1 286.9 302.1 286.5 302.5 286.3L309.6 282.2C310 281.9 310.8 281.9 311.2 282.2ZM318.5 289.5L325.6 285.4C326.1 285.1 326.8 285.1 327.2 285.4L334.2 289.5C334.6 289.8 334.6 290.2 334.2 290.4L327.1 294.5C326.6 294.8 325.9 294.8 325.5 294.5L318.5 290.4C318.1 290.2 318.1 289.8 318.5 289.5ZM329 280.1C329.4 280.4 329.4 280.8 329 281L321.9 285.1C321.4 285.4 320.7 285.4 320.3 285.1L313.3 281C312.9 280.7 312.9 280.3 313.3 280.1L320.4 276C320.9 275.7 321.6 275.7 322 276L329 280.1ZM330.9 278.9L323.9 274.8C323.5 274.5 323.5 274.1 323.9 273.9L331 269.8C331.5 269.5 332.2 269.5 332.6 269.8L339.6 273.9C340 274.2 340 274.6 339.6 274.8L332.5 278.9C332.1 279.2 331.4 279.2 330.9 278.9ZM329.2 283.4L336.3 279.3C336.8 279 337.5 279 337.9 279.3L344.9 283.4C345.3 283.7 345.3 284.1 344.9 284.3L337.8 288.4C337.3 288.7 336.6 288.7 336.2 288.4L329.2 284.3C328.8 284 328.8 283.6 329.2 283.4ZM312.9 302.8L305.8 306.9C305.3 307.2 304.6 307.2 304.2 306.9L297.1 302.8C296.7 302.5 296.7 302.1 297.1 301.9L304.2 297.8C304.7 297.5 305.4 297.5 305.8 297.8L312.8 301.9C313.3 302.1 313.3 302.6 312.9 302.8ZM307.8 309.2L314.8 313.3C315.2 313.6 315.2 314 314.8 314.2L304.6 320.1C304.1 320.4 303.4 320.4 303 320.1L295.9 316C295.5 315.7 295.5 315.3 295.9 315.1L306.2 309.2C306.6 308.9 307.3 308.9 307.8 309.2ZM278.9 300.8L286 304.9C286.4 305.2 286.4 305.6 286 305.8L278.8 309.9C278.3 310.2 277.6 310.2 277.2 309.9L270.1 305.8C269.7 305.5 269.7 305.1 270.1 304.9L277.3 300.8C277.8 300.6 278.5 300.6 278.9 300.8ZM289.6 303.7C289.1 304 288.4 304 288 303.7L280.9 299.6C280.5 299.3 280.5 298.9 280.9 298.7L288.1 294.6C288.6 294.3 289.3 294.3 289.7 294.6L296.8 298.7C297.2 299 297.2 299.4 296.8 299.6L289.6 303.7ZM286.3 308.2L293.5 304.1C294 303.8 294.7 303.8 295.1 304.1L302.2 308.2C302.6 308.5 302.6 308.9 302.2 309.1L295.1 313.2C294.6 313.5 293.9 313.5 293.5 313.2L286.4 309.1C285.8 308.9 285.8 308.4 286.3 308.2ZM291.4 314.3C291.8 314.6 291.8 315 291.4 315.2L284.2 319.3C283.7 319.6 283 319.6 282.6 319.3L275.5 315.2C275.1 314.9 275.1 314.5 275.5 314.3L282.7 310.2C283.2 309.9 283.9 309.9 284.3 310.2L291.4 314.3ZM293.9 317.2L301 321.3C301.4 321.6 301.4 322 301 322.2L293.3 326.7C292.8 327 292.1 327 291.7 326.7L284.6 322.6C284.2 322.3 284.2 321.9 284.6 321.7L292.3 317.2C292.7 316.9 293.4 316.9 293.9 317.2ZM268 316.2C267.5 316.5 266.8 316.5 266.4 316.2L259.3 312.1C258.8 311.8 258.9 311.4 259.3 311.2L266.5 307.1C267 306.8 267.7 306.8 268.1 307.1L275.2 311.2C275.6 311.5 275.6 311.9 275.2 312.1L268 316.2ZM264.4 318.3L257.2 322.4C256.7 322.7 256 322.7 255.6 322.4L248.5 318.3C248 318 248.1 317.6 248.5 317.4L255.7 313.3C256.2 313 256.9 313 257.3 313.3L264.4 317.4C264.9 317.6 264.9 318 264.4 318.3ZM271.8 325.7L264.7 321.6C264.3 321.3 264.3 320.9 264.7 320.7L271.9 316.6C272.4 316.3 273.1 316.3 273.5 316.6L280.6 320.7C281 321 281 321.4 280.6 321.6L273.4 325.7C273 325.9 272.2 325.9 271.8 325.7ZM287.3 326.4L289.7 327.8C290.1 328.1 290.1 328.5 289.7 328.7L282 333.2C281.5 333.5 280.8 333.5 280.4 333.2L278 331.8C277.6 331.5 277.6 331.1 278 330.9L285.7 326.4C286.1 326.2 286.9 326.2 287.3 326.4ZM271.3 330L273.3 331.2C273.7 331.5 273.7 331.9 273.3 332.1L265.5 336.6C265 336.9 264.3 336.9 263.9 336.6L261.9 335.4C261.4 335.1 261.5 334.7 261.9 334.5L269.7 330C270.1 329.7 270.9 329.7 271.3 330ZM276.5 332.9L278.7 334.2C279.1 334.5 279.1 334.9 278.7 335.1L271 339.6C270.5 339.9 269.8 339.9 269.4 339.6L267.2 338.3C266.7 338 266.8 337.6 267.2 337.4L275 332.9C275.3 332.6 276 332.6 276.5 332.9Z" fill="#686388"/>
<path d="M199 329.4L202.6 331.5C203.1 331.8 203.5 331.5 203.5 330.9C203.5 330.3 203.1 329.5 202.6 329.3L199 327.2C198.5 326.9 198.1 327.2 198.1 327.8C198.2 328.4 198.6 329.2 199 329.4Z" fill="#A7B6C7"/>
<path d="M208.9 335.2L212.5 337.3C213 337.6 213.4 337.3 213.4 336.7C213.4 336.1 213 335.3 212.5 335.1L208.9 333C208.4 332.7 208 333 208 333.6C208.1 334.2 208.5 334.9 208.9 335.2Z" fill="#A7B6C7"/>
<path d="M186.5 180.3L191.7 307.2C191.7 308 192.2 307.9 192.9 307.6L352.6 215.8C353.3 215.4 355.5 213.5 355.5 212.7L350.3 85.8C350.3 85 349.8 84.7 349.1 85.1L187.7 178.3C187.1 178.6 186.5 179.6 186.5 180.3Z" fill="#D7EEFF"/>
<path fill-rule="evenodd" clip-rule="evenodd" d="M303.9 111.2L309.1 240.9L354.4 214.8C355.1 214.4 355.6 213.5 355.6 212.7L350.4 85.8C350.4 85 349.9 84.7 349.2 85.1L303.9 111.2Z" fill="#118AF7"/>
<path opacity="0.3" d="M318.9 141.6C318.9 148.6 324 151.3 330.2 147.7C336.5 144.1 341.5 135.5 341.5 128.5C341.5 121.5 336.4 118.8 330.2 122.4C324 126 318.9 134.7 318.9 141.6Z" fill="white"/>
<path opacity="0.2" d="M316.3 166.8L344.1 150.7C345.3 150 346.3 148.2 346.3 146.6C346.3 145 345.3 144.3 344.1 145L316.3 161.1C315.1 161.8 314.1 163.6 314.1 165.2C314.1 166.8 315.1 167.5 316.3 166.8Z" fill="white"/>
<path opacity="0.1" d="M318.9 172.7L341.4 159.7C342.2 159.3 342.8 158.1 342.8 157.1C342.8 156.1 342.2 155.7 341.4 156.1L318.9 169.1C318.1 169.5 317.5 170.7 317.5 171.7C317.6 172.7 318.2 173.1 318.9 172.7Z" fill="white"/>
<path d="M201.8 283L298.2 227C298.9 226.6 299.4 225.6 299.4 224.7L295.5 141.1C295.5 140.2 294.9 139.8 294.3 140.2L197.9 196.2C197.2 196.6 196.7 197.6 196.7 198.5L200.6 282.1C200.5 283 201.1 283.4 201.8 283Z" fill="white"/>
<path d="M211.8 201.5C211.8 202.6 212.6 203.1 213.5 202.6L284.3 161.3C285.3 160.7 286.1 159.3 286.1 158.2C286.1 157.1 285.3 156.6 284.3 157.2L213.6 198.4C212.6 199 211.8 200.4 211.8 201.5Z" fill="#A5B5D9"/>
<path d="M222.9 203.8L285.1 167.5C285.6 167.2 286.1 166.4 286.1 165.6C286.1 164.9 285.7 164.6 285.1 164.9L222.9 201.2C222.4 201.5 221.9 202.3 221.9 203.1C221.9 203.8 222.4 204.1 222.9 203.8Z" fill="#A5B5D9"/>
<path d="M230.6 211.3L269.9 188.2C270.4 187.9 270.7 187.2 270.7 186.7C270.7 186.1 270.3 185.8 269.9 186.1L230.6 209.2C230.1 209.5 229.8 210.2 229.8 210.7C229.8 211.3 230.2 211.5 230.6 211.3Z" fill="#DCE4F5"/>
<path d="M252.4 204.1L269.9 193.6C270.4 193.3 270.7 192.6 270.7 192.1C270.7 191.5 270.3 191.2 269.9 191.5L252.4 202C251.9 202.3 251.6 203 251.6 203.5C251.6 204.1 252 204.4 252.4 204.1Z" fill="#DCE4F5"/>
<path d="M277.3 191.1L285 186.7C285.6 186.3 286.1 185.4 286.1 184.6V176.5C286.1 175.7 285.6 175.4 285 175.7L277.3 180.1C276.7 180.5 276.2 181.4 276.2 182.2V190.3C276.2 191.1 276.7 191.4 277.3 191.1Z" fill="#DCE4F5"/>
<path d="M230.6 230.8L269.9 207.7C270.4 207.4 270.7 206.7 270.7 206.2C270.7 205.6 270.3 205.3 269.9 205.6L230.6 228.7C230.1 229 229.8 229.7 229.8 230.2C229.8 230.8 230.2 231.1 230.6 230.8Z" fill="#DCE4F5"/>
<path d="M252.4 223.7L269.9 213.2C270.4 212.9 270.7 212.2 270.7 211.7C270.7 211.1 270.3 210.8 269.9 211.1L252.4 221.6C251.9 221.9 251.6 222.6 251.6 223.1C251.6 223.7 252 223.9 252.4 223.7Z" fill="#DCE4F5"/>
<path d="M277.3 210.6L285 206.2C285.6 205.8 286.1 204.9 286.1 204.1V196C286.1 195.2 285.6 194.9 285 195.2L277.3 199.6C276.7 200 276.2 200.9 276.2 201.7V209.8C276.2 210.6 276.7 211 277.3 210.6Z" fill="#DCE4F5"/>
<path d="M230.6 250.7L269.9 227.6C270.4 227.3 270.7 226.6 270.7 226.1C270.7 225.5 270.3 225.2 269.9 225.5L230.6 248.6C230.1 248.9 229.8 249.6 229.8 250.1C229.8 250.7 230.2 251 230.6 250.7Z" fill="#DCE4F5"/>
<path d="M252.4 243.6L269.9 233.1C270.4 232.8 270.7 232.1 270.7 231.6C270.7 231 270.3 230.7 269.9 231L252.4 241.5C251.9 241.8 251.6 242.5 251.6 243C251.6 243.6 252 243.8 252.4 243.6Z" fill="#DCE4F5"/>
<path d="M277.3 230.5L285 226.1C285.6 225.7 286.1 224.8 286.1 224V215.9C286.1 215.1 285.6 214.8 285 215.1L277.3 219.5C276.7 219.9 276.2 220.8 276.2 221.6V229.7C276.2 230.5 276.7 230.9 277.3 230.5Z" fill="#DCE4F5"/>
<path d="M518.7 96.7H511.2V53.8L517.5 58.2001C518.2 58.7001 518.7 59.6 518.7 60.5V96.7Z" fill="#B98705"/>
<path d="M512.2 55.5C512.2 53.5 509.8 53.3 509.4 53.6L481.4 69.8C481 70 480.7 70.6 480.7 71V84.1L427 115.2C425.8 115.9 425 117.5 425 118.8V183.8C425 186.9 427.4 186.9 427.4 186.9L508.1 138.1C509.3 137.4 510.1 135.8 510.1 134.5L512.2 55.5Z" fill="#B98705"/>
<path d="M512.2 78.5V56C512.2 55.5 511.8 55.4 511.4 55.6L483.4 71.8C483 72 482.7 72.6 482.7 73.1V86.2L429 117.3C427.8 118 427 119.6 427 120.9V185.9C427.1 187.2 428 187.8 429.2 187.1L510.2 140.3C511.4 139.6 512.2 138 512.2 136.7V78.7C512.2 78.6 512.2 78.6 512.2 78.5Z" fill="#F5C826"/>
<path fill-rule="evenodd" clip-rule="evenodd" d="M487.4 89L476.6 95.6V97.4L487.4 90.8V89Z" fill="#5342F1"/>
<path fill-rule="evenodd" clip-rule="evenodd" d="M473.4 97.5L465.4 102.5V104.3L473.4 99.3V97.5Z" fill="#CDCDD2"/>
<path fill-rule="evenodd" clip-rule="evenodd" d="M463.6 103.6L448.5 112.8V114.6L463.6 105.4V103.6Z" fill="#CDCDD2"/>
<path fill-rule="evenodd" clip-rule="evenodd" d="M446.3 114.2L441.8 116.9V118.7L446.3 115.9V114.2Z" fill="#CDCDD2"/>
<path fill-rule="evenodd" clip-rule="evenodd" d="M495.2 93L484 99.9V101.7L495.2 94.8V93Z" fill="#5342F1"/>
<path fill-rule="evenodd" clip-rule="evenodd" d="M495.2 97.4L484 104.3V106.1L495.2 99.2V97.4Z" fill="#5342F1"/>
<path fill-rule="evenodd" clip-rule="evenodd" d="M480.6 102L462.2 113.2V115L480.6 103.7V102Z" fill="#CDCDD2"/>
<path fill-rule="evenodd" clip-rule="evenodd" d="M480.6 106.4L470.5 112.5V114.3L480.6 108.2V106.4Z" fill="#CDCDD2"/>
<path fill-rule="evenodd" clip-rule="evenodd" d="M459.5 114.9L454.5 117.9V119.7L459.5 116.6V114.9Z" fill="#CDCDD2"/>
<path fill-rule="evenodd" clip-rule="evenodd" d="M452.3 119.3L446.1 123.1V124.8L452.3 121V119.3Z" fill="#CDCDD2"/>
<path fill-rule="evenodd" clip-rule="evenodd" d="M460.7 118.5L449.5 125.4V127.2L460.7 120.3V118.5Z" fill="#CDCDD2"/>
<path fill-rule="evenodd" clip-rule="evenodd" d="M468.3 113.9L463.5 116.8V118.6L468.3 115.7V113.9Z" fill="#CDCDD2"/>
<path fill-rule="evenodd" clip-rule="evenodd" d="M498.6 102.6V104.3L492.2 108.3V106.5L498.6 102.6Z" fill="#5342F1"/>
<path fill-rule="evenodd" clip-rule="evenodd" d="M498.6 107V108.7L484.9 117.1V115.3L498.6 107Z" fill="#CDCDD2"/>
<path fill-rule="evenodd" clip-rule="evenodd" d="M495.2 113.5L484 120.3V122.1L495.2 115.3V113.5Z" fill="#5342F1"/>
<path fill-rule="evenodd" clip-rule="evenodd" d="M495.2 117.9L484 124.7V126.5L495.2 119.7V117.9Z" fill="#5342F1"/>
<path fill-rule="evenodd" clip-rule="evenodd" d="M487.4 127L476.6 133.7V135.5L487.4 128.8V127Z" fill="#5342F1"/>
<path fill-rule="evenodd" clip-rule="evenodd" d="M488.2 108.9L477 115.8V117.6L488.2 110.7V108.9Z" fill="#CDCDD2"/>
<path fill-rule="evenodd" clip-rule="evenodd" d="M474.1 117.6L468.4 121V122.8L474.1 119.4V117.6Z" fill="#CDCDD2"/>
<path fill-rule="evenodd" clip-rule="evenodd" d="M464.7 123.3L438.7 139.3V141L464.7 125.1V123.3Z" fill="#CDCDD2"/>
<path fill-rule="evenodd" clip-rule="evenodd" d="M481.7 117.3L470.3 124.3V126L481.7 119.1V117.3Z" fill="#5342F1"/>
<path fill-rule="evenodd" clip-rule="evenodd" d="M480.6 122.4L467.9 130.2V132L480.6 124.2V122.4Z" fill="#CDCDD2"/>
<path fill-rule="evenodd" clip-rule="evenodd" d="M480.6 126.8L471.9 132.1V133.9L480.6 128.6V126.8Z" fill="#CDCDD2"/>
<path fill-rule="evenodd" clip-rule="evenodd" d="M464.7 132.1L455.3 137.9V139.7L464.7 133.9V132.1Z" fill="#CDCDD2"/>
<path fill-rule="evenodd" clip-rule="evenodd" d="M452.8 139.4L447 142.9V144.7L452.8 141.2V139.4Z" fill="#CDCDD2"/>
<path fill-rule="evenodd" clip-rule="evenodd" d="M444.2 144.6L438.7 148.1V149.8L444.2 146.4V144.6Z" fill="#CDCDD2"/>
<path fill-rule="evenodd" clip-rule="evenodd" d="M469.4 133.6L452.8 143.8V145.6L469.4 135.4V133.6Z" fill="#CDCDD2"/>
<path fill-rule="evenodd" clip-rule="evenodd" d="M450.7 145.1L446.5 147.7V149.5L450.7 146.9V145.1Z" fill="#CDCDD2"/>
<path fill-rule="evenodd" clip-rule="evenodd" d="M473.4 135.6L465.4 140.5V142.3L473.4 137.4V135.6Z" fill="#CDCDD2"/>
<path d="M518.7 60.3C518.7 58.3 516.3 58.1 515.9 58.4L487.9 74.6C487.5 74.8 487.2 75.4 487.2 75.9V89L433.5 120C432.3 120.7 431.5 122.3 431.5 123.6V188.6C431.5 191.7 434.6 191.8 434.6 191.8L514.7 143C515.9 142.3 516.7 140.7 516.7 139.4L518.7 60.3Z" fill="#B98705"/>
<path d="M518.7 60.4999C518.7 59.9999 518.3 59.7999 517.9 60.0999L489.9 76.2999C489.5 76.4999 489.2 77.0999 489.2 77.5999V90.6999L435.5 121.8C434.3 122.5 433.5 124.1 433.5 125.4V190.4C433.6 191.7 434.5 192.3 435.7 191.6L516.7 144.8C517.9 144.1 518.7 142.5 518.7 141.2V60.4999Z" fill="#F5C826"/>
<path d="M440.7 177.7V165.1C440.7 164.5 441 163.9 441.6 163.6L460.1 152.9C461.3 152.2 462.7 153.1 462.7 154.4V167.1C462.7 167.7 462.4 168.3 461.8 168.6L443.3 179.2C442.2 179.9 440.7 179.1 440.7 177.7Z" fill="#F8DE78"/>
<path d="M432.9 191.3L426.1 186.4L425.4 118L432.9 122.7V191.3Z" fill="#B98705"/>
<path fill-rule="evenodd" clip-rule="evenodd" d="M459.3 160.6L453.8 164V162L459.3 158.7V160.6Z" fill="white"/>
<path fill-rule="evenodd" clip-rule="evenodd" d="M451.5 165.4L444.7 169.6V167.6L451.5 163.5V165.4Z" fill="white"/>
<path fill-rule="evenodd" clip-rule="evenodd" d="M459.4 165.6L447.1 173.1V171.2L459.4 163.7V165.6Z" fill="white"/>
<path fill-rule="evenodd" clip-rule="evenodd" d="M362.7 225.2L383.2 212.1C385.3 210.9 387.1 207.6 387.1 204.7L389.3 147.1C389.3 143.9 385.4 143.1 383.3 144.3L360.7 157.3C358.6 158.5 356.8 161.8 356.8 164.7V221C356.7 225.3 360.4 226.4 362.7 225.2Z" fill="#DAE3ED"/>
<path fill-rule="evenodd" clip-rule="evenodd" d="M362.9 225.1L385.5 212.1C387.6 210.9 389.4 207.6 389.4 204.7V147.9C389.4 145.1 387.7 143.8 385.5 145L362.9 158C360.8 159.2 359 162.5 359 165.4V222.2C359 225.1 360.7 226.4 362.9 225.1Z" fill="white"/>
<path fill-rule="evenodd" clip-rule="evenodd" d="M387.1 200.8V150.6C387.1 149.6 386.5 149.1 385.7 149.6L362.5 163C361.7 163.4 361.1 164.6 361.1 165.6V215.8C361.1 216.8 361.7 217.3 362.5 216.8L385.7 203.4C386.5 203 387.1 201.8 387.1 200.8Z" fill="#323B70"/>
<path fill-rule="evenodd" clip-rule="evenodd" d="M371.3 156.3L377 153C377.2 152.9 377.3 152.6 377.3 152.4C377.3 152.2 377.2 152.1 377 152.2L371.3 155.5C371.1 155.6 371 155.9 371 156.1C371 156.3 371.1 156.4 371.3 156.3Z" fill="#DAE3ED"/>
<path fill-rule="evenodd" clip-rule="evenodd" d="M372 215.4C372 216.8 373 217.3 374.2 216.6C375.4 215.9 376.4 214.2 376.4 212.8C376.4 211.4 375.4 210.9 374.2 211.6C373 212.3 372 214 372 215.4Z" fill="#DAE3ED"/>
<path fill-rule="evenodd" clip-rule="evenodd" d="M387.1 149.8V201.8C387.1 202.4 386.7 203 386.3 203.4C386.2 203.4 362.1 217.4 362.1 217.4C361.5 217.7 361.1 217.5 361.1 216.8V164.8C361.1 164.2 361.5 163.4 362.1 163.1L386.1 149.2C386.7 148.9 387.1 149.2 387.1 149.8Z" fill="#BACBFC"/>
<path d="M386.3 158.6V203.4C386.2 203.4 362.2 217.3 362.2 217.3V172.8L386.3 158.6Z" fill="white"/>
<path d="M382.5 173.3L374.3 178C374 178.2 373.8 178 373.8 177.7C373.8 177.4 374 176.9 374.3 176.8L382.5 172.1C382.8 171.9 383 172.1 383 172.4C383 172.7 382.8 173.1 382.5 173.3Z" fill="#DCE4F5"/>
<path d="M379.9 178L374.3 181.2C374 181.4 373.8 181.2 373.8 180.9C373.8 180.6 374 180.1 374.3 180L379.9 176.8C380.2 176.6 380.4 176.8 380.4 177.1C380.4 177.4 380.1 177.8 379.9 178Z" fill="#DCE4F5"/>
<path d="M369.1 185.2L364.5 187.8C364.1 188 363.8 187.8 363.8 187.3V182.5C363.8 182 364.1 181.5 364.5 181.3L369.1 178.7C369.5 178.5 369.8 178.7 369.8 179.2V184C369.8 184.4 369.5 185 369.1 185.2Z" fill="#DCE4F5"/>
<path d="M382.5 184.2L374.3 188.9C374 189.1 373.8 188.9 373.8 188.6C373.8 188.3 374 187.8 374.3 187.7L382.5 183C382.8 182.8 383 183 383 183.3C383 183.6 382.8 184 382.5 184.2Z" fill="#DCE4F5"/>
<path d="M379.9 188.9L374.3 192.1C374 192.3 373.8 192.1 373.8 191.8C373.8 191.5 374 191 374.3 190.9L379.9 187.7C380.2 187.5 380.4 187.7 380.4 188C380.4 188.3 380.1 188.8 379.9 188.9Z" fill="#DCE4F5"/>
<path d="M369.1 196.1L364.5 198.7C364.1 198.9 363.8 198.7 363.8 198.2V193.4C363.8 192.9 364.1 192.4 364.5 192.2L369.1 189.6C369.5 189.4 369.8 189.6 369.8 190.1V194.9C369.8 195.4 369.5 195.9 369.1 196.1Z" fill="#DCE4F5"/>
<path d="M382.5 195.3L374.3 200C374 200.2 373.8 200 373.8 199.7C373.8 199.4 374 198.9 374.3 198.8L382.5 194.1C382.8 193.9 383 194.1 383 194.4C383 194.7 382.8 195.1 382.5 195.3Z" fill="#DCE4F5"/>
<path d="M379.9 200.1L374.3 203.3C374 203.5 373.8 203.3 373.8 203C373.8 202.7 374 202.2 374.3 202.1L379.9 198.9C380.2 198.7 380.4 198.9 380.4 199.2C380.4 199.5 380.1 199.9 379.9 200.1Z" fill="#DCE4F5"/>
<path d="M380.4 206.6C380.4 206.7 380.4 206.8 380.4 206.8L373.8 210.6C373.8 210.5 373.8 210.5 373.8 210.4C373.8 210.2 373.9 210 374 209.9C374.1 209.7 374.2 209.6 374.4 209.5L380 206.3C380.1 206.1 380.4 206.2 380.4 206.6Z" fill="#DCE4F5"/>
<path d="M369.1 207.3L364.5 209.9C364.1 210.1 363.8 209.9 363.8 209.4V204.6C363.8 204.1 364.1 203.6 364.5 203.4L369.1 200.8C369.5 200.6 369.8 200.8 369.8 201.3V206.1C369.8 206.5 369.5 207.1 369.1 207.3Z" fill="#DCE4F5"/>
<path d="M369.8 212.6V212.9L363.9 216.3V216C363.9 215.5 364.2 215 364.6 214.8L369.2 212.2C369.5 211.9 369.8 212.1 369.8 212.6Z" fill="#DCE4F5"/>
<path d="M386.3 151.7V159.2L362.2 173V165.4C362.2 164.8 362.5 164.1 362.9 163.9L385.5 151C386 150.8 386.3 151.1 386.3 151.7Z" fill="#118AF7"/>
<path opacity="0.3" d="M373.2 162.5C373.2 163.8 372.2 165.5 371 166.2C369.8 166.9 368.8 166.4 368.8 165C368.8 163.6 369.8 162 371 161.3C372.2 160.6 373.2 161.1 373.2 162.5Z" fill="white"/>
<path opacity="0.2" d="M380 158.7L374.7 161.8C374.5 161.9 374.3 161.8 374.3 161.5C374.3 161.2 374.5 160.9 374.7 160.7L380 157.6C380.2 157.5 380.4 157.6 380.4 157.9C380.4 158.2 380.2 158.6 380 158.7Z" fill="white"/>
<path opacity="0.1" d="M378.8 160.8L374.5 163.3C374.4 163.4 374.2 163.3 374.2 163.1C374.2 162.9 374.3 162.7 374.5 162.6L378.8 160.1C378.9 160 379.1 160.1 379.1 160.3C379.1 160.5 379 160.7 378.8 160.8Z" fill="white"/>
<path d="M383.9 165L364.7 176C364.3 176.2 364.1 176 364.1 175.5C364.1 175 364.4 174.5 364.7 174.3L383.9 163.2C384.3 163 384.5 163.2 384.5 163.7C384.5 164.2 384.2 164.8 383.9 165Z" fill="#A5B5D9"/>
<path d="M376.5 171.6L364.4 178.6C364.2 178.7 364 178.6 364 178.3C364 178 364.2 177.7 364.4 177.5L376.5 170.5C376.7 170.4 376.9 170.5 376.9 170.8C376.9 171.1 376.8 171.5 376.5 171.6Z" fill="#A5B5D9"/>
<path fill-rule="evenodd" clip-rule="evenodd" d="M222.5 446.7L229.2 423.1L237.8 428.1L222.5 446.7Z" fill="url(#paint0_linear)"/>
<path fill-rule="evenodd" clip-rule="evenodd" d="M229.9 420.5L241.7 378.6L248.6 431.5L229.9 420.5Z" fill="#CCCCD1"/>
<path fill-rule="evenodd" clip-rule="evenodd" d="M127.8 390L222.5 446.7L241.7 378.6L147.1 322L127.8 390Z" fill="#E7E7E7"/>
<path fill-rule="evenodd" clip-rule="evenodd" d="M232.4 382.3L152 334.2L137.1 386.3L217.6 434.4L232.4 382.3Z" fill="#118AF7"/>
<path fill-rule="evenodd" clip-rule="evenodd" d="M193 371.3L148 344.4L148.9 341.2L194.1 368.3C193.7 369.3 193.3 370.3 193 371.3Z" fill="#E7E7E7"/>
<path fill-rule="evenodd" clip-rule="evenodd" d="M190 382.5L144.8 355.5L145.7 352.3L190.7 379.2C190.5 380.3 190.3 381.4 190 382.5Z" fill="#E7E7E7"/>
<path fill-rule="evenodd" clip-rule="evenodd" d="M187.5 393.4C187.5 393.5 187.4 393.7 187.4 393.8L141.8 366.5L142.7 363.3L188.2 390.5C188 391.6 187.7 392.5 187.5 393.4Z" fill="#E7E7E7"/>
<path fill-rule="evenodd" clip-rule="evenodd" d="M184 404.8L138.8 377.7L139.7 374.5L185.1 401.7C184.6 402.7 184.3 403.7 184 404.8Z" fill="#E7E7E7"/>
<path fill-rule="evenodd" clip-rule="evenodd" d="M146.3 394L143.2 392.1L159.2 335.6L162.4 337.5L146.3 394Z" fill="#E7E7E7"/>
<path fill-rule="evenodd" clip-rule="evenodd" d="M156.2 400.2L153 398.3L169.1 341.8L172.3 343.7L156.2 400.2Z" fill="#E7E7E7"/>
<path fill-rule="evenodd" clip-rule="evenodd" d="M166 406.3L162.9 404.5L179 347.9L182.1 349.8L166 406.3Z" fill="#E7E7E7"/>
<path fill-rule="evenodd" clip-rule="evenodd" d="M187 418.7L172.8 410.6L188.8 354.1L203.1 362.1L187 418.7Z" fill="#E7E7E7"/>
<path fill-rule="evenodd" clip-rule="evenodd" d="M237.8 428.1L229.2 423.1L229.9 420.5L248.6 431.5L237.8 428.1Z" fill="#B7B8BB"/>
<path d="M173.9 403.3L170.7 404.5H170.6C170.2 404.7 169.7 404.4 169.6 404V403.9L167.8 393.3L171.3 403.5L170.1 402.9L173 401.2C173.6 400.9 174.2 401.1 174.6 401.6C174.9 402.1 174.7 402.9 174.2 403.2C174 403.2 173.9 403.2 173.9 403.3Z" fill="#EE6D30"/>
<path d="M160.3 368.7L157.1 369.9L157 370C156.6 370.2 156.1 369.9 156 369.5V369.4L154.2 358.8L157.7 369L156.5 368.4L159.4 366.7C160 366.4 160.7 366.6 161 367.1C161.3 367.6 161.1 368.3 160.6 368.7C160.4 368.7 160.4 368.7 160.3 368.7Z" fill="#EE6D30"/>
<path d="M176.9 353.3L173.7 354.5H173.6C173.2 354.7 172.7 354.4 172.6 354V353.9L170.8 343.3L174.3 353.5L173.1 352.9L176 351.2C176.5 350.9 177.2 351.1 177.6 351.6C177.9 352.1 177.7 352.8 177.2 353.2C177.1 353.3 177 353.3 176.9 353.3Z" fill="#EE6D30"/>
<path d="M412 219.8C412 220 412 220.2 412.1 220.5C412.3 221.2 412.8 221.9 413.5 222.4L413.9 222.7C422.8 229.5 433.3 235.5 445.1 240.7C447.5 241.7 450.7 241.9 453.3 241C453.7 240.9 454.1 240.7 454.4 240.6C459.4 238.8 463.5 236.4 466.5 233.4L466.7 233.2C468.2 231.7 468 229.8 466.2 228.4C461.8 225 456.9 221.8 451.7 218.8C446.5 215.8 441 213 435.1 210.4L434.6 210.2C432.2 209.1 428.9 209 426.3 209.9L425.9 210C420.4 211.8 415.9 214.5 412.8 217.6C412.3 218.3 412 219.1 412 219.8Z" fill="#CCD5E3"/>
<path d="M412 219.8C412 220 412 220.2 412.1 220.5H412.2C414.1 220.9 420.5 222.3 425.7 224.3C428.5 225.4 432.1 227.8 432.1 227.8C436.4 230.1 445.4 238.5 447.3 240.2C449.1 242 450.1 241.6 451.6 241.3C452 241.2 453.1 241 454.5 240.6C459.5 238.8 463.6 236.4 466.6 233.4L466.8 233.2C467 233 467.2 232.8 467.3 232.6C467.6 232.2 467.8 231.7 467.8 231.2L467.2 229.3V229.2C460.5 221.6 455.6 217.3 448.6 214.1C441.6 210.9 437.5 209.8 432.4 209.3C431.8 209.2 431.2 209.2 430.7 209.2C429.3 209.2 428 209.4 427 209.6C426.8 209.6 426.7 209.7 426.5 209.8L426.1 209.9C425.4 210.1 424.7 210.4 424.1 210.6C419.6 212.4 415.8 214.7 413 217.5C412.3 218.3 412 219.1 412 219.8Z" fill="white"/>
<path d="M96.3001 299.1L133.4 277.2C134.4 276.7 134.9 275.6 134.9 274.5V233.2C134.9 230.8 132.3 229.4 130.3 230.5L94.5001 251.6C92.7001 252.6 91.6001 254.5 91.6001 256.6V296.3C91.7001 298.8 94.3001 300.2 96.3001 299.1Z" fill="#F7F5F7"/>
<path d="M134.8 233.3V274.6C134.8 275.7 134.3 276.7 133.4 277.3L96.3001 299.2C94.2001 300.4 91.7001 298.9 91.7001 296.5V256.8C91.7001 254.8 92.8001 252.9 94.6001 251.8L130.3 230.7C132.3 229.5 134.8 231 134.8 233.3Z" fill="#F7F5F7"/>
<path d="M134.5 231.6C133.6 230.3 131.9 229.8 130.4 230.7L94.6 251.8C92.8 252.8 91.7 254.7 91.7 256.8V296.5C91.7 296.6 91.7 296.7 91.7 296.7C91.8 298.5 93.4 299.7 95 299.5C92.1 299.9 87.8 299 87.8 294.9V256C87.8 252.3 90.5 250.1 92.3 249.1L124.9 229.8C130 227 134.3 229.4 134.5 231.6Z" fill="#118AF7"/>
<path d="M95 296C94.6 295.7 94.3 295.3 94.3 294.8V256.5C94.3 255.6 94.8 254.7 95.6 254.2L130.5 233.6C130.9 233.4 131.4 233.4 131.8 233.6C132.2 233.8 132.4 234.2 132.4 234.7V273.6C132.4 274.3 132 275 131.4 275.3L96.4 295.9C96.2 296 95.9 296.1 95.7 296.1C95.5 296.2 95.2 296.2 95 296ZM131.1 234.7L96.2 255.3C95.7 255.6 95.5 256 95.5 256.6V294.9C95.5 295.1 95.6 295.1 95.6 295.2C95.6 295.2 95.8 295.6 95.9 295.5L130.9 274.9C131.2 274.8 131.3 274.2 131.3 273.9V235C131.3 234.9 131.3 234.9 131.2 234.9C131.2 234.6 131.2 234.6 131.1 234.7C131.1 234.6 131.1 234.6 131.1 234.7Z" fill="#CDCDD2"/>
<path d="M126.6 257.7L123.5 257.8C123.5 256.8 123.3 255.8 123 255L125.4 250.9C125.6 250.7 125.6 250.3 125.5 250.2L123.9 248.3C123.8 248.2 123.7 248.2 123.5 248.3C123.4 248.3 123.4 248.4 123.3 248.5L120.1 251.7C119.4 251.4 118.7 251.2 117.9 251.2V247.3C117.9 247 117.8 246.9 117.6 247L114.8 247.9H114.7C114.5 248 114.3 248.2 114.3 248.5L112.9 252.9C112 253.5 111.1 254.2 110.3 255L107.9 253.7C107.8 253.6 107.7 253.6 107.6 253.7C107.5 253.7 107.4 253.8 107.3 253.9L104.9 257.1C104.7 257.4 104.6 257.7 104.7 257.8L105.9 260.8C105.3 261.9 104.8 263 104.4 264.2L100.9 266.2C100.8 266.3 100.6 266.5 100.6 266.6C100.6 266.7 100.6 266.7 100.5 266.8L99.9 270.4C99.8 270.7 100 270.9 100.2 270.8L103.3 270.7C103.4 271.7 103.5 272.6 103.8 273.5L101.4 277.6C101.2 277.8 101.2 278.2 101.3 278.3L102.9 280.2C103 280.3 103.1 280.3 103.3 280.2C103.4 280.2 103.4 280.1 103.5 280L106.7 276.8C107.4 277.1 108.1 277.3 108.9 277.3V281.2C108.9 281.5 109 281.6 109.2 281.5L112 280.6C112 280.6 112.1 280.6 112.1 280.5C112.3 280.4 112.5 280.2 112.5 279.9L113.9 275.6C114.8 275 115.7 274.3 116.5 273.5L118.9 274.8C119 274.9 119.1 274.9 119.2 274.8C119.3 274.8 119.4 274.7 119.5 274.6L121.9 271.4C122.1 271.1 122.2 270.8 122.1 270.7L120.9 267.7C121.5 266.6 122 265.5 122.4 264.3L125.9 262.3C126 262.2 126.2 262.1 126.2 261.9C126.2 261.8 126.2 261.8 126.3 261.7L126.9 258.1C127 257.9 126.8 257.7 126.6 257.7ZM118.6 262.6C118.1 265.8 115.8 269 113.4 270.4C113 270.6 112.6 270.8 112.2 270.9C109.3 271.8 107.5 269.6 108.1 265.9C108.6 262.7 110.9 259.5 113.3 258.1C113.7 257.9 114.1 257.7 114.5 257.6C117.4 256.7 119.2 258.9 118.6 262.6Z" fill="#B7B8BB"/>
<path opacity="0.3" d="M385.3 83.9L374.9 90.3L395.7 103L406 96.7L385.3 83.9Z" fill="#8A8A8A"/>
<path d="M386.8 85.3L392.4 81.4C391.4 82.1 391 83.6 391.4 85.6C392 88.5 394.3 91.4 396.8 92.6C397.1 92.7 397.3 92.8 397.6 92.9C398.7 93.2 399.6 93.1 400.2 92.6L394.6 96.5C393.9 97 393 97.1 392 96.8C391.7 96.7 391.5 96.6 391.2 96.5C388.8 95.4 386.5 92.4 385.8 89.5C385.4 87.5 385.8 86 386.8 85.3Z" fill="#7B7B7B"/>
<path d="M385.1 81.5C384.5 80.9 383.3 79.5 383.3 79.4C383.3 79.4 383 79.3 382.9 79.4L388.5 75.5C388.7 75.4 388.9 75.5 388.9 75.5C389 75.6 389.5 76.2 390 76.8L392.7 74.9C392.8 74.9 392.9 74.8 393.1 74.9C393.4 75 393.8 75.1 393.8 75.1C393.8 75.1 394.2 75.2 394.5 75.3H394.6C394.8 75.4 395 75.6 395 75.6C395 75.7 395.8 78.1 395.9 78.4C395.9 78.5 396.1 78.8 396.2 78.9C396.7 79.2 397.2 79.5 397.7 79.9L399.6 78.6C399.6 78.6 399.7 78.6 399.8 78.7C399.9 78.7 400 78.8 400.2 79C400.5 79.3 400.8 79.7 400.9 79.7C400.9 79.7 401.3 80.1 401.5 80.4C401.8 80.7 401.9 81 401.9 81C401.9 81.1 401.2 82.7 401.1 82.9C401.1 83 401.1 83.2 401.1 83.4C401.6 84 402 84.7 402.3 85.4C402.4 85.5 402.6 85.6 402.7 85.7H402.8C403 85.7 405 86.2 405.1 86.2C405.1 86.2 405.4 86.4 405.5 86.8C405.6 87.2 405.8 87.6 405.8 87.7C405.8 87.7 406 88.2 406.1 88.6C406.2 89 406.1 89.2 406.1 89.2L403.9 90.7C403.9 91 403.9 91.2 403.9 91.4C404 91.6 404.1 91.8 404.2 91.9C404.4 92.1 406.3 94 406.4 94.1C406.4 94.1 406.6 94.4 406.5 94.7C406.4 95 406.3 95.3 406.3 95.3C406.3 95.3 406.2 95.7 406.1 95.9C406.1 96 406 96.1 406 96.1L403 98.2C403.1 98.4 403.1 98.5 403.1 98.6C403.1 98.6 403.1 98.8 402.9 98.9L397.3 102.8C397.4 102.7 397.5 102.6 397.5 102.5C397.5 102.4 396.5 100 396.4 99.7C396.3 99.6 396.3 99.4 396.4 99.2L396.7 99C397 98.8 397.2 98.6 397.4 98.3L399.6 96.8C399.2 96.4 398.8 96 398.7 95.9C398.6 95.8 398.5 95.6 398.4 95.4C398.4 94.8 398.4 94.2 398.3 93.5C398.4 93.4 398.4 93.3 398.5 93.3L400.4 91.9C400.3 91.8 400.3 91.6 400.3 91.6C400.3 91.6 400.1 91.1 400 90.8C399.9 90.4 399.6 90.2 399.6 90.2C399.5 90.2 397.6 89.7 397.3 89.7C397.3 89.7 397.3 89.7 397.2 89.7C397.1 89.6 396.9 89.5 396.8 89.4C396.4 88.7 396 88 395.6 87.4C395.6 87.2 395.5 87 395.6 86.9C395.7 86.7 396.3 85.1 396.4 85C396.4 85 396.3 84.7 396 84.4C395.7 84.1 395.4 83.7 395.4 83.7C395.4 83.7 395 83.3 394.7 83L394.6 82.9L392.9 84.1C392.8 84.2 392.7 84.2 392.5 84.1C391.9 83.7 391.4 83.3 390.8 82.9C390.7 82.7 390.5 82.5 390.5 82.4C390.4 82.2 390.1 81 389.8 80.3L388.2 81.4C388.5 81.5 388.7 81.6 388.7 81.6C388.8 81.6 389 81.6 389.1 81.6L383.5 85.5C383.4 85.6 383.2 85.6 383.1 85.5C382.8 85.4 380.9 84.7 380.8 84.7L385.1 81.5Z" fill="#D8D8D8"/>
<path d="M391.7 99.3L397.3 95.4C397.2 95.5 397.2 95.5 397.2 95.6C397.2 95.8 396.7 97.7 396.7 97.8L391.1 101.7C391.1 101.6 391.6 99.8 391.6 99.5C391.6 99.4 391.6 99.3 391.7 99.3Z" fill="#FAFAFA"/>
<path d="M405.6 86.9C405.7 87.3 405.9 87.7 405.9 87.8C405.9 87.8 406.1 88.3 406.2 88.7C406.3 88.9 406.3 89.1 406.2 89.2L400.5 93.2L400.1 92.3C399.3 90 398.2 91.8 400.3 91.7C398.9 92.2 399.6 91.7 399.4 91.3C399.3 90.9 399.6 90.2 399.6 90.2C399.6 90.2 399.6 90.2 399.5 90.2L405.2 86.3C405.2 86.3 405.5 86.7 405.6 86.9Z" fill="#FAFAFA"/>
<path d="M406.5 94.1001C406.5 94.1001 406.7 94.4001 406.6 94.7001C406.5 95.0001 406.4 95.3001 406.4 95.3001C406.4 95.3001 406.3 95.7001 406.2 95.9001C406.2 96.0001 406.1 96.0001 406.1 96.0001L400.3 100.1L399.4 97.9001L398.8 97.4001C399.1 97.2001 398.4 97.6001 398.6 97.4001L400.5 98.0001L406.5 94.1001Z" fill="#FAFAFA"/>
<path d="M394.7 84.1001C394.7 84.1001 394.6 83.9001 394.3 83.6001C394.3 83.5001 393.9 83.5001 393.8 83.5001L393.9 82.7001L399.5 78.7001H399.7C399.7 78.7001 399.8 78.7001 399.9 78.8001C400 78.8001 400.1 78.9001 400.3 79.1001C400.6 79.4001 400.9 79.8001 401 79.8001C401 79.8001 401.4 80.2001 401.6 80.5001C401.9 80.8001 401.9 81.0001 401.9 81.1001C401.8 81.3001 396.1 85.4001 396.2 85.2001H395.3C395.2 85.1001 395.3 85.0001 395.2 84.8001C394.8 84.3001 394.7 84.1001 394.7 84.1001Z" fill="#FAFAFA"/>
<path d="M388.1 81.4C388.2 81.4 388.2 81.4 388.3 81.5L385.6 84L387.3 82C387.9 80.4 387.7 79.1 387.1 78.9L392.8 74.8C392.9 74.8 393.1 74.8 393.3 74.8C393.6 74.9 394 75 394 75C394 75 394.4 75.1 394.7 75.2H394.8C394.9 75.2 395 75.4 395.1 75.4L389.3 79.7L388.1 81.4Z" fill="#FAFAFA"/>
<path d="M380.4 85.1C380.4 84.8 380.6 84.7 380.6 84.7C380.7 84.7 383.2 85.5 383.3 85.5C383.4 84.9 383.5 84.4 383.8 84C383.8 83.8 383.7 83.6 383.6 83.4C383.4 83.1 381.9 80.8 381.8 80.7C381.8 80.7 381.7 80.4 381.9 80.2C382.1 80 382.3 79.8 382.3 79.8C382.3 79.8 382.5 79.6 382.7 79.4C382.9 79.2 383.2 79.4 383.2 79.4C383.3 79.5 385.1 81.5 385.3 81.8C385.4 81.9 385.6 82 385.8 82.1C386.2 81.9 386.7 81.9 387.2 81.9C387.3 81.8 387.3 81.6 387.3 81.5C387.3 81.2 387 79 387 78.8C387 78.8 387.1 78.6 387.4 78.7C387.7 78.8 388.1 78.9 388.1 78.9C388.1 78.9 388.5 79 388.8 79.1H388.9C389.1 79.2 389.3 79.4 389.3 79.4C389.3 79.5 390.1 81.9 390.2 82.2C390.2 82.3 390.4 82.6 390.5 82.7C391.1 83 391.7 83.4 392.2 83.9C392.4 83.9 392.5 83.9 392.6 83.8C392.7 83.6 393.8 82.5 393.9 82.4C393.9 82.4 394 82.4 394.1 82.5C394.2 82.5 394.3 82.6 394.5 82.8C394.8 83.1 395.1 83.5 395.2 83.5C395.2 83.5 395.6 83.9 395.8 84.2C396.1 84.5 396.2 84.8 396.2 84.8C396.2 84.9 395.5 86.5 395.4 86.7C395.4 86.8 395.4 87 395.4 87.2C395.9 87.8 396.3 88.5 396.6 89.2C396.7 89.3 396.9 89.4 397 89.5H397.1C397.3 89.5 399.3 90 399.4 90C399.4 90 399.7 90.3 399.8 90.6C399.9 91 400.1 91.4 400.1 91.4C400.1 91.4 400.3 91.9 400.4 92.3C400.5 92.7 400.4 92.9 400.4 92.9C400.3 92.9 398.6 93 398.4 93C398.3 93 398.2 93.1 398.1 93.2C398.2 93.9 398.3 94.5 398.2 95.1C398.3 95.3 398.4 95.5 398.5 95.6C398.7 95.8 400.6 97.7 400.7 97.8C400.7 97.8 400.9 98.1 400.8 98.4C400.7 98.7 400.6 99 400.6 99C400.6 99 400.5 99.4 400.4 99.6C400.3 99.9 400.1 99.9 400.1 99.9C400 99.8 398 98.4 397.7 98.2C397.7 98.2 397.6 98.2 397.6 98.1C397.5 98 397.4 98 397.2 98C396.9 98.4 396.6 98.7 396.2 98.9C396.2 99.1 396.2 99.3 396.2 99.4C396.3 99.7 397.3 102.1 397.3 102.2C397.3 102.2 397.3 102.5 397 102.5C396.7 102.5 396.4 102.6 396.4 102.6C396.4 102.6 396.1 102.7 395.8 102.7C395.7 102.7 395.6 102.7 395.5 102.6C395.4 102.5 395.3 102.5 395.3 102.5C395.2 102.4 393.9 100 393.7 99.7C393.6 99.6 393.4 99.4 393.3 99.2C393 99.2 392.8 99.1 392.5 99C392.2 98.9 391.9 98.8 391.6 98.7C391.5 98.8 391.4 98.8 391.3 99C391.3 99.2 390.8 101.1 390.8 101.2C390.8 101.2 390.6 101.3 390.4 101.1C390.4 101.1 390.3 101.1 390.3 101C390 100.8 389.6 100.5 389.6 100.5C389.6 100.5 389.2 100.2 388.9 100C388.6 99.8 388.4 99.5 388.4 99.5C388.4 99.4 388.3 97.2 388.3 97C388.3 96.9 388.2 96.6 388.1 96.4C387.5 95.9 387 95.3 386.5 94.7C386.3 94.6 386.1 94.6 386 94.6C385.8 94.7 384.2 95 384.1 95.1C384.1 95.1 383.8 94.9 383.6 94.6C383.4 94.2 383.1 93.8 383.1 93.8C383.1 93.8 382.8 93.3 382.6 93C382.4 92.6 382.4 92.4 382.4 92.4C382.5 92.4 383.7 91.4 383.9 91.3C384 91.2 384 91.1 384 90.9C383.7 90.2 383.5 89.5 383.3 88.8C383.2 88.6 383 88.4 382.9 88.4C382.6 88.3 380.6 87 380.5 87C380.5 87 380.3 86.7 380.2 86.3C380.2 86 380.1 85.5 380.1 85.5C380.5 85.9 380.4 85.5 380.4 85.1ZM385.8 89.4C386.4 92.3 388.7 95.2 391.2 96.4C391.5 96.5 391.7 96.6 392 96.7C394.7 97.5 396.4 95.5 395.6 92.3C395 89.4 392.7 86.5 390.2 85.3C389.9 85.2 389.7 85.1 389.4 85C386.8 84.2 385.1 86.2 385.8 89.4Z" fill="#A0A0A0"/>
<defs>
<linearGradient id="paint0_linear" x1="223.006" y1="443.964" x2="232.99" y2="426.48" gradientUnits="userSpaceOnUse">
<stop stop-color="#9C9C9C"/>
<stop offset="0.2715" stop-color="#BDBDBD"/>
<stop offset="0.5596" stop-color="#D9D9D9"/>
<stop offset="0.8122" stop-color="#EAEAEA"/>
<stop offset="1" stop-color="#F0F0F0"/>
</linearGradient>
</defs>
</svg>
