<?xml version="1.0" standalone="no"?><!DOCTYPE svg PUBLIC "-//W3C//DTD SVG 1.1//EN" "http://www.w3.org/Graphics/SVG/1.1/DTD/svg11.dtd"><svg t="1623056614725" class="icon" viewBox="0 0 1024 1024" version="1.1" xmlns="http://www.w3.org/2000/svg" p-id="18222" xmlns:xlink="http://www.w3.org/1999/xlink" width="200" height="200"><defs><style type="text/css"></style></defs><path d="M922.93214 334.484004c-22.535249-52.895721-54.801117-100.395548-95.890954-141.184533-41.088814-40.781822-88.941682-72.807213-142.236492-95.179756C629.613698 74.948993 571.005882 63.202461 510.60421 63.202461c-60.398602 0-119.006418 11.746532-174.194344 34.918277-53.292764 22.372543-101.145631 54.398958-142.234445 95.179756-41.09086 40.788985-73.355705 88.288812-95.89607 141.184533-23.344684 54.778604-35.178197 112.955608-35.178197 172.906002 0 70.982658 16.452717 138.816602 48.900733 201.614857 30.856775 59.731406 75.91397 112.743784 130.281205 153.310711 12.355399 9.207709 29.887704 6.742565 39.166021-5.51562 9.278317-12.258185 6.791683-29.6636-5.556553-38.874379-99.68435-74.368778-156.852374-187.55156-156.852374-310.536592 0-214.314087 175.653579-388.667044 391.56607-388.667044 215.914538 0 391.573233 174.352957 391.573233 388.667044 0 122.985032-57.173141 236.166791-156.857491 310.536592-12.348236 9.210779-14.83487 26.616194-5.554506 38.874379 5.495154 7.259334 13.885242 11.081383 22.37766 11.081383 5.849218 0 11.748578-1.810229 16.786315-5.566786 54.374398-40.566928 99.423407-93.579305 130.285299-153.310711 32.448016-62.798255 48.895617-130.631176 48.895617-201.614857C958.110337 447.440635 946.276824 389.263631 922.93214 334.484004L922.93214 334.484004zM790.298354 500.657674c0-74.154907-29.090549-143.873782-81.915661-196.309014-52.825113-52.430116-123.06485-81.306794-197.773366-81.306794-74.710562 0-144.948253 28.876678-197.777459 81.306794-52.823066 52.435233-81.913615 122.154108-81.913615 196.309014 0 38.331004 7.80271 75.474972 23.195282 110.400413 14.783705 33.546024 35.880185 63.562665 62.693878 89.216951 11.125385 10.640338 28.832675 10.313903 39.548738-0.723477 10.721179-11.040451 10.394744-28.613688-0.730641-39.254026-44.348044-42.428322-68.771293-99.123578-68.771293-159.63986 0-122.466216 100.374058-222.094284 223.75511-222.094284 123.374912 0 223.756133 99.628068 223.756133 222.094284 0 60.515259-24.426319 117.211539-68.77334 159.63986-11.125385 10.635221-11.45182 28.213575-0.730641 39.254026 5.487991 5.653767 12.808724 8.499581 20.140713 8.494465 6.982018 0 13.982456-2.579755 19.408025-7.770987 26.813692-25.653263 47.904033-55.669904 62.695924-89.216951C782.495644 576.12753 790.298354 538.987654 790.298354 500.657674L790.298354 500.657674zM563.370994 686.328397C550.647205 665.283082 531.415189 653.210116 510.60421 653.210116c-20.808932 0-40.040948 12.072967-52.759621 33.117258L347.588463 868.729657c-12.876262 21.298072-14.423501 43.74634-4.248767 61.584614 10.172687 17.839297 30.362518 28.070312 55.390541 28.070312l223.753063 0c25.024953 0 45.214784-10.231015 55.392588-28.070312 10.175757-17.839297 8.623401-40.286542-4.252861-61.584614L563.370994 686.328397 563.370994 686.328397zM622.4833 902.863059 398.730237 902.863059c-2.452865 0-4.307096-0.2415-5.605671-0.523933 0.426719-1.254573 1.169639-2.955308 2.433422-5.042853l110.252033-182.399213c2.082428-3.446495 3.834328-5.067412 4.79419-5.77554 0.961908 0.709151 2.718925 2.329045 4.801353 5.77554l110.252033 182.399213c1.263783 2.082428 2.007727 3.783163 2.436492 5.042853C626.78528 902.622582 624.936165 902.863059 622.4833 902.863059L622.4833 902.863059zM622.4833 902.863059" p-id="18223"></path></svg>