<svg xmlns="http://www.w3.org/2000/svg" viewBox="0 0 135.69 18.24"><defs><style>.cls-1{fill:#fff;}</style></defs><title>资源 4</title><g id="图层_2" data-name="图层 2"><g id="图层_1-2" data-name="图层 1"><path class="cls-1" d="M0,16.28V2H4.93a12.56,12.56,0,0,1,2.55.2,4.82,4.82,0,0,1,2.1,1,5.77,5.77,0,0,1,1.69,2.44,9.52,9.52,0,0,1,.57,3.41,10.17,10.17,0,0,1-.38,2.89,7.06,7.06,0,0,1-1,2.08,5,5,0,0,1-1.31,1.3,5.16,5.16,0,0,1-1.7.72,10,10,0,0,1-2.3.24Zm1.89-1.69H5a7.27,7.27,0,0,0,2.22-.26,3.22,3.22,0,0,0,1.29-.74,4.49,4.49,0,0,0,1-1.81A8.91,8.91,0,0,0,9.88,9a6.66,6.66,0,0,0-.73-3.45A3.7,3.7,0,0,0,7.35,4,7.25,7.25,0,0,0,4.9,3.66h-3Z"/><path class="cls-1" d="M13.87,9.31a7.74,7.74,0,0,1,1.91-5.58,6.49,6.49,0,0,1,4.94-2,6.89,6.89,0,0,1,3.58,1A6.12,6.12,0,0,1,26.72,5.3a8.53,8.53,0,0,1,.84,3.84,8.36,8.36,0,0,1-.88,3.9,6,6,0,0,1-2.49,2.6,7.09,7.09,0,0,1-3.48.89,6.79,6.79,0,0,1-3.61-1,6.23,6.23,0,0,1-2.41-2.67A8,8,0,0,1,13.87,9.31Zm2,0a5.74,5.74,0,0,0,1.39,4.08,4.59,4.59,0,0,0,3.49,1.49,4.54,4.54,0,0,0,3.52-1.51,6.08,6.08,0,0,0,1.39-4.27A7.25,7.25,0,0,0,25,6.08a4.55,4.55,0,0,0-1.72-2,4.69,4.69,0,0,0-2.56-.72,4.82,4.82,0,0,0-3.46,1.39C16.3,5.65,15.82,7.18,15.82,9.34Z"/><path class="cls-1" d="M39.39,2h1.9v8.27a9.7,9.7,0,0,1-.49,3.43A4.16,4.16,0,0,1,39,15.73a6.27,6.27,0,0,1-3.35.8,6.77,6.77,0,0,1-3.29-.7,3.94,3.94,0,0,1-1.82-2A9.49,9.49,0,0,1,30,10.24V2h1.89v8.26A8.09,8.09,0,0,0,32.27,13a2.63,2.63,0,0,0,1.19,1.36,4.14,4.14,0,0,0,2.07.48,4,4,0,0,0,3-1c.59-.63.88-1.84.88-3.64Z"/><path class="cls-1" d="M44.42,16.28V2h1.95l7.52,11.24V2H55.7V16.28H53.76L46.24,5V16.28Z"/><path class="cls-1" d="M59.21,16.28V2H61.1V16.28Z"/><path class="cls-1" d="M63.87,9.31a7.74,7.74,0,0,1,1.91-5.58,6.49,6.49,0,0,1,4.94-2,6.89,6.89,0,0,1,3.58,1A6.12,6.12,0,0,1,76.72,5.3a8.53,8.53,0,0,1,.84,3.84,8.36,8.36,0,0,1-.88,3.9,6,6,0,0,1-2.49,2.6,7.09,7.09,0,0,1-3.48.89,6.79,6.79,0,0,1-3.61-1,6.23,6.23,0,0,1-2.41-2.67A8,8,0,0,1,63.87,9.31Zm1.95,0a5.74,5.74,0,0,0,1.39,4.08,4.59,4.59,0,0,0,3.49,1.49,4.54,4.54,0,0,0,3.52-1.51,6.08,6.08,0,0,0,1.39-4.27A7.25,7.25,0,0,0,75,6.08a4.55,4.55,0,0,0-1.72-2,4.69,4.69,0,0,0-2.56-.72,4.82,4.82,0,0,0-3.46,1.39C66.3,5.65,65.82,7.18,65.82,9.34Z"/><path class="cls-1" d="M80,16.28V2h1.94l7.52,11.24V2h1.82V16.28H89.32L81.8,5V16.28Z"/><path class="cls-1" d="M101.47,14.42l.51.27.69.41a6.68,6.68,0,0,0,1.62.74,10,10,0,0,0,2.33.37,34.71,34.71,0,0,0,3.55,0q2.13-.09,5.28-.39a2.51,2.51,0,0,0-.4.73,4.74,4.74,0,0,0-.18.87l-4.08.09c-1.14,0-2.13,0-3,0s-1.52-.06-2.09-.13a9.16,9.16,0,0,1-1.49-.29,6.61,6.61,0,0,1-1.14-.46,8.58,8.58,0,0,1-1-.67,3.75,3.75,0,0,0-.83-.48,1,1,0,0,0-.74,0,3.12,3.12,0,0,0-.91.63c-.34.32-.79.77-1.34,1.36a2.16,2.16,0,0,0-.46-.65,1.94,1.94,0,0,0-.54-.39c.43-.37.8-.69,1.11-.94l.82-.63a5.52,5.52,0,0,1,.61-.38,2.78,2.78,0,0,1,.48-.19V8.06c-.54,0-1.09,0-1.63,0s-.93,0-1.19.07V6.92c.27,0,.58.07.93.1s.73,0,1.11,0l1.12,0a8,8,0,0,0,1-.11c0,.35-.09.7-.11,1s0,.8,0,1.33Zm-.38-9.34a11.51,11.51,0,0,0-1.21-1.74,17.11,17.11,0,0,0-1.73-1.82L99.09.7c.27.24.55.5.83.79s.57.59.85.9.55.62.8.93.48.6.68.88Zm8,.22A17.38,17.38,0,0,1,108.75,8l1.56,1.49c.54.51,1,1,1.55,1.53l1.4,1.44c.44.45.81.86,1.13,1.22l-1.26,1c-.28-.43-.6-.88-1-1.37s-.77-1-1.19-1.47-.84-1-1.28-1.43-.85-.88-1.25-1.25a10.48,10.48,0,0,1-1.66,3.09A14.9,14.9,0,0,1,103.93,15a3.35,3.35,0,0,0-.55-.58,4.39,4.39,0,0,0-.71-.48,13.65,13.65,0,0,0,2.2-1.54,7.79,7.79,0,0,0,1.55-1.8,8.73,8.73,0,0,0,1-2.28,15,15,0,0,0,.48-3q-1.62,0-2.85.06c-.82,0-1.55.07-2.19.14V4.14c.64.05,1.38.09,2.21.12s1.8,0,2.89.06c0-.4,0-.81,0-1.22s0-.81,0-1.19,0-.73,0-1.06,0-.61-.06-.85a4.83,4.83,0,0,0,.75.16,3.65,3.65,0,0,0,.81,0c.16,0,.26,0,.29.09s0,.16-.15.27a.8.8,0,0,0-.18.29,3.64,3.64,0,0,0-.13.65c0,.29-.06.67-.09,1.13s0,1-.06,1.73h1.68l1.39,0c.42,0,.82,0,1.18-.06l1.09-.08V5.5c-.36,0-.72-.07-1.09-.09l-1.19-.06-1.4,0Z"/><path class="cls-1" d="M118.77,2.68c-.29,0-.53,0-.73,0s-.41.06-.67.11V1.54a11.59,11.59,0,0,0,1.38.11q.93,0,2.7,0h1.76l1.21,0,.79,0a3.61,3.61,0,0,0,.48-.07V2.82c-.14,0-.35,0-.63-.08a9.62,9.62,0,0,0-1,0V13l.91-.25.91-.27a2.33,2.33,0,0,0,0,1.14l-.93.21-.91.21c0,.59,0,1.09,0,1.52s0,.8,0,1.12,0,.6.06.85.06.49.08.73h-1.46c0-.36.08-.84.11-1.44s.05-1.43.05-2.5c-1.33.32-2.48.61-3.44.86s-1.6.44-1.94.56a1.94,1.94,0,0,0-.16-.68,4.62,4.62,0,0,0-.4-.66c.23,0,.49,0,.79-.05s.63-.08,1-.15Zm1.16,0v3h3v-3Zm0,4v3h3v-3Zm0,7.32,1.43-.3c.5-.11,1-.23,1.57-.38V10.56h-3Zm10.2-9.42a18.53,18.53,0,0,0,1.45-2.33,13.61,13.61,0,0,0,.85-2A3.28,3.28,0,0,0,133,.6c.19.09.4.18.62.26s.38.18.37.27-.14.18-.41.29a1.22,1.22,0,0,0-.24.18,4.69,4.69,0,0,0-.39.48l-.63.93-1,1.53q1,0,1.62-.06c.44,0,.87-.07,1.28-.12V5.62a15,15,0,0,0-1.65-.13c-.62,0-1.35,0-2.21,0v4h1.39l1.36,0,1.18-.06c.36,0,.65,0,.89-.07v1.34c-.46-.05-1.1-.09-1.91-.12s-1.75,0-2.85,0a20.25,20.25,0,0,0,1.1,2.1,15.85,15.85,0,0,0,1.18,1.67,11.66,11.66,0,0,0,1.35,1.37,14.1,14.1,0,0,0,1.61,1.16,2.39,2.39,0,0,0-.55.52,4.94,4.94,0,0,0-.49.78q-.84-.7-1.5-1.38a13.17,13.17,0,0,1-1.2-1.41,13.56,13.56,0,0,1-1-1.55c-.29-.55-.56-1.14-.82-1.78a8.5,8.5,0,0,1-1.5,3.4,11.07,11.07,0,0,1-2.92,2.7,2.52,2.52,0,0,0-.52-.59,2.43,2.43,0,0,0-.74-.39,12.67,12.67,0,0,0,2.23-1.47A7.34,7.34,0,0,0,128.13,14a5.77,5.77,0,0,0,.79-1.69,8.59,8.59,0,0,0,.31-1.88q-1.33,0-2.4,0a17.41,17.41,0,0,0-1.82.13V9.24c.47,0,1.08.1,1.83.13s1.56.05,2.41.05v-4c-.8,0-1.49,0-2.09,0s-1.12.07-1.59.12V4.36c.52.07,1.17.11,2,.14S129.17,4.54,130.13,4.54Zm-1.86-.44a11.51,11.51,0,0,0-1-1.54,9.84,9.84,0,0,0-1.24-1.36l1-.72c.48.51.91,1,1.28,1.48a14.84,14.84,0,0,1,1,1.46Z"/></g></g></svg>