<?xml version="1.0" standalone="no"?><!DOCTYPE svg PUBLIC "-//W3C//DTD SVG 1.1//EN" "http://www.w3.org/Graphics/SVG/1.1/DTD/svg11.dtd"><svg t="1620891767916" class="icon" viewBox="0 0 1122 1024" version="1.1" xmlns="http://www.w3.org/2000/svg" p-id="25235" xmlns:xlink="http://www.w3.org/1999/xlink" width="219.140625" height="200"><defs><style type="text/css"></style></defs><path d="M693.76 959.488c0 34.816-133.632 62.976-300.544 62.976s-299.008-28.16-299.008-62.976 133.632-62.976 300.544-62.976c165.376 0.512 299.008 28.16 299.008 62.976z" fill="#EFEFEF" p-id="25236"></path><path d="M863.744 19.968c11.776-1.536 17.92 0 17.92 0 67.584 0 75.776 69.12 75.776 69.12v143.872h-160.256V92.672c4.096-56.32 43.52-69.632 66.56-72.704zM681.984 819.2h-563.2C0 781.312 19.968 647.68 19.968 647.68H563.2c-1.536 110.592 26.624 171.52 118.784 171.52z" fill="#E8E8E9" p-id="25237"></path><path d="M681.984 837.12H115.712l-3.072-1.536C8.192 802.816-5.12 696.832 1.536 644.096l1.536-16.384h578.048v17.92c0 66.048 9.728 107.52 31.232 130.56 14.848 14.848 37.888 23.04 69.12 23.04h14.848c86.016-5.12 84.48-102.4 84.48-107.52v-599.04C784.384 19.968 839.168 5.12 862.208 1.536c9.728-1.536 17.92-1.536 21.504 0 66.048 0 89.088 56.32 92.672 86.016V250.88h-160.256v442.88c1.536 46.08-21.504 138.752-118.784 143.872h-15.36v-0.512z m-559.616-35.84h462.336c-26.624-28.16-37.888-71.168-39.424-135.68H36.352c0 33.28 8.192 109.056 86.016 135.68zM817.664 214.528h122.368V89.088c-1.536-8.192-8.192-51.2-56.32-51.2H865.28c-31.232 3.072-48.128 23.04-49.664 54.272 0.512 0.512 2.048 122.368 2.048 122.368z" fill="#4A4D55" p-id="25238"></path><path d="M186.88 644.096H148.48V143.872c3.072-44.544 34.816-132.096 130.56-141.824h602.624v36.352h-599.04c-86.016 9.728-95.744 97.28-95.744 107.52v498.176z" fill="#4A4D55" p-id="25239"></path><path d="M678.912 308.736H262.656c-6.656 0-11.776-5.12-11.776-11.776s5.12-11.776 11.776-11.776h416.256c6.656 0 11.776 5.12 11.776 11.776s-5.12 11.776-11.776 11.776z m0 103.936H262.656c-6.656 0-11.776-5.12-11.776-11.776s5.12-11.776 11.776-11.776h416.256c6.656 0 11.776 5.12 11.776 11.776s-5.12 11.776-11.776 11.776zM513.536 517.12h-250.88c-6.656 0-11.776-5.12-11.776-11.776s5.12-11.776 11.776-11.776h252.928c6.656 0 11.776 5.12 11.776 11.776s-5.632 11.776-13.824 11.776z m118.784-322.048c-3.072 0-6.656-3.072-6.656-6.656V120.32c0-3.072 3.072-6.656 6.656-6.656 3.072 0 6.656 3.072 6.656 6.656v67.584c0 3.584-3.072 7.168-6.656 7.168z m91.136 0c-3.072 0-6.656-3.072-6.656-6.656V120.32c0-3.072 3.072-6.656 6.656-6.656 3.072 0 6.656 3.072 6.656 6.656v67.584c0 3.584-3.584 7.168-6.656 7.168z m-46.08 21.504c-3.072 0-6.656-3.072-6.656-6.656V99.328c0-3.072 3.072-6.656 6.656-6.656s6.656 3.072 6.656 6.656v112.128c-0.512 3.072-2.048 5.12-6.656 5.12z" fill="#4A4D55" p-id="25240"></path></svg>